solid OpenSCAD_Model
  facet normal -1 0 0
    outer loop
      vertex -2.8 -30 -2
      vertex -2.8 30 2
      vertex -2.8 30 -2
    endloop
  endfacet
  facet normal -1 -0 0
    outer loop
      vertex -2.8 30 2
      vertex -2.8 -30 -2
      vertex -2.8 -30 2
    endloop
  endfacet
  facet normal -0 0 1
    outer loop
      vertex 0.809016 14.4122 2
      vertex 1 -15 2
      vertex 1 15 2
    endloop
  endfacet
  facet normal 0 0 1
    outer loop
      vertex 0.809016 14.4122 2
      vertex 0.809016 -14.4122 2
      vertex 1 -15 2
    endloop
  endfacet
  facet normal -0 0 1
    outer loop
      vertex 0.309016 14.0489 2
      vertex 0.809016 -14.4122 2
      vertex 0.809016 14.4122 2
    endloop
  endfacet
  facet normal 0 0 1
    outer loop
      vertex 0.309016 14.0489 2
      vertex 0.309016 -14.0489 2
      vertex 0.809016 -14.4122 2
    endloop
  endfacet
  facet normal -0 0 1
    outer loop
      vertex -0.309016 14.0489 2
      vertex 0.309016 -14.0489 2
      vertex 0.309016 14.0489 2
    endloop
  endfacet
  facet normal 0 0 1
    outer loop
      vertex -0.309016 14.0489 2
      vertex -0.309016 -14.0489 2
      vertex 0.309016 -14.0489 2
    endloop
  endfacet
  facet normal 0 0 1
    outer loop
      vertex -0.809016 14.4122 2
      vertex -0.309016 -14.0489 2
      vertex -0.309016 14.0489 2
    endloop
  endfacet
  facet normal 0 0 1
    outer loop
      vertex -0.809016 14.4122 2
      vertex -0.809016 -14.4122 2
      vertex -0.309016 -14.0489 2
    endloop
  endfacet
  facet normal 0 0 1
    outer loop
      vertex -1 15 2
      vertex -0.809016 -14.4122 2
      vertex -0.809016 14.4122 2
    endloop
  endfacet
  facet normal 0 0 1
    outer loop
      vertex -0.809016 -14.4122 2
      vertex -1 15 2
      vertex -1 -15 2
    endloop
  endfacet
  facet normal 0 0 1
    outer loop
      vertex 1.8 -30 2
      vertex 0.772542 -30.1224 2
      vertex 1.8 -30.8689 2
    endloop
  endfacet
  facet normal -0 0 1
    outer loop
      vertex -3.67382e-015 -30 2
      vertex 0.772542 -30.1224 2
      vertex 1.8 -30 2
    endloop
  endfacet
  facet normal 0 0 1
    outer loop
      vertex -3.67382e-015 -30 2
      vertex -0.772542 -30.1224 2
      vertex 0.772542 -30.1224 2
    endloop
  endfacet
  facet normal 0 0 1
    outer loop
      vertex -1.8 -30 2
      vertex -3.67382e-015 -30 2
      vertex -0.309016 -15.9511 2
    endloop
  endfacet
  facet normal 0 0 1
    outer loop
      vertex -2.8 -30 2
      vertex -0.309016 -15.9511 2
      vertex -0.809016 -15.5878 2
    endloop
  endfacet
  facet normal 0 0 1
    outer loop
      vertex -2.8 -30 2
      vertex -0.809016 -15.5878 2
      vertex -1 -15 2
    endloop
  endfacet
  facet normal 0 0 1
    outer loop
      vertex -0.809016 15.5878 2
      vertex -2.8 30 2
      vertex -1 15 2
    endloop
  endfacet
  facet normal 0 0 1
    outer loop
      vertex -1 15 2
      vertex -2.8 30 2
      vertex -1 -15 2
    endloop
  endfacet
  facet normal 0 0 1
    outer loop
      vertex -3.67382e-015 -30 2
      vertex -1.8 -30 2
      vertex -0.772542 -30.1224 2
    endloop
  endfacet
  facet normal 0 0 1
    outer loop
      vertex -0.772542 -30.1224 2
      vertex -1.8 -30 2
      vertex -1.8 -30.8689 2
    endloop
  endfacet
  facet normal -0 0 1
    outer loop
      vertex 0.772542 30.1224 2
      vertex 1.8 30 2
      vertex 1.8 30.8689 2
    endloop
  endfacet
  facet normal 0 0 1
    outer loop
      vertex 1.8 30 2
      vertex 1 15 2
      vertex 1.8 -30 2
    endloop
  endfacet
  facet normal 0 0 1
    outer loop
      vertex 1.8 30 2
      vertex 0.809016 15.5878 2
      vertex 1 15 2
    endloop
  endfacet
  facet normal 0 0 1
    outer loop
      vertex 0.309016 15.9511 2
      vertex 1.8 30 2
      vertex 0.772542 30.1224 2
    endloop
  endfacet
  facet normal 0 0 1
    outer loop
      vertex 1.8 30 2
      vertex 0.309016 15.9511 2
      vertex 0.809016 15.5878 2
    endloop
  endfacet
  facet normal 0 0 1
    outer loop
      vertex 0.772542 30.1224 2
      vertex -0.309016 15.9511 2
      vertex 0.309016 15.9511 2
    endloop
  endfacet
  facet normal -0 0 1
    outer loop
      vertex -0.772542 30.1224 2
      vertex -0.309016 15.9511 2
      vertex 0.772542 30.1224 2
    endloop
  endfacet
  facet normal -0 0 1
    outer loop
      vertex -1.8 30 2
      vertex -0.309016 15.9511 2
      vertex -0.772542 30.1224 2
    endloop
  endfacet
  facet normal 0 0 1
    outer loop
      vertex -1.8 30 2
      vertex -0.772542 30.1224 2
      vertex -1.8 30.8689 2
    endloop
  endfacet
  facet normal 0 0 1
    outer loop
      vertex -0.309016 15.9511 2
      vertex -2.8 30 2
      vertex -0.809016 15.5878 2
    endloop
  endfacet
  facet normal -0 0 1
    outer loop
      vertex -2.8 30 2
      vertex -0.309016 15.9511 2
      vertex -1.8 30 2
    endloop
  endfacet
  facet normal -0 0 1
    outer loop
      vertex 1.8 30 2
      vertex 2.8 -30 2
      vertex 2.8 30 2
    endloop
  endfacet
  facet normal 0 0 1
    outer loop
      vertex 2.8 -30 2
      vertex 1.8 30 2
      vertex 1.8 -30 2
    endloop
  endfacet
  facet normal -0 0 1
    outer loop
      vertex 1 -15 2
      vertex 1.8 -30 2
      vertex 1 15 2
    endloop
  endfacet
  facet normal -0 0 1
    outer loop
      vertex 0.809016 -15.5878 2
      vertex 1.8 -30 2
      vertex 1 -15 2
    endloop
  endfacet
  facet normal -0 0 1
    outer loop
      vertex 0.309016 -15.9511 2
      vertex 1.8 -30 2
      vertex 0.809016 -15.5878 2
    endloop
  endfacet
  facet normal 0 0 1
    outer loop
      vertex 0.309016 -15.9511 2
      vertex -3.67382e-015 -30 2
      vertex 1.8 -30 2
    endloop
  endfacet
  facet normal 0 -0 1
    outer loop
      vertex -3.67382e-015 -30 2
      vertex 0.309016 -15.9511 2
      vertex -0.309016 -15.9511 2
    endloop
  endfacet
  facet normal 0 0 1
    outer loop
      vertex -2.8 -30 2
      vertex -1 -15 2
      vertex -2.8 30 2
    endloop
  endfacet
  facet normal 0 0 1
    outer loop
      vertex -0.309016 -15.9511 2
      vertex -2.8 -30 2
      vertex -1.8 -30 2
    endloop
  endfacet
  facet normal 0 0 0
    outer loop
      vertex 1.8 -30 2
      vertex -3.67382e-015 -30 2
      vertex 2.8 -30 2
    endloop
  endfacet
  facet normal 1 -0 0
    outer loop
      vertex 2.8 -30 2
      vertex 2.8 30 -2
      vertex 2.8 30 2
    endloop
  endfacet
  facet normal 1 0 0
    outer loop
      vertex 2.8 30 -2
      vertex 2.8 -30 2
      vertex 2.8 -30 -2
    endloop
  endfacet
  facet normal 0 0 -1
    outer loop
      vertex 0.309016 15.9511 -2
      vertex 2.8 30 -2
      vertex 0.809016 15.5878 -2
    endloop
  endfacet
  facet normal 0 0 -1
    outer loop
      vertex 2.8 30 -2
      vertex 0.809016 31.9122 -2
      vertex 1 32.5 -2
    endloop
  endfacet
  facet normal 0 0 -1
    outer loop
      vertex -2.8 30 -2
      vertex 2.8 30 -2
      vertex 0.309016 15.9511 -2
    endloop
  endfacet
  facet normal 0 0 -1
    outer loop
      vertex 2.8 30 -2
      vertex 0.309016 31.5489 -2
      vertex 0.809016 31.9122 -2
    endloop
  endfacet
  facet normal 0 0 -1
    outer loop
      vertex -2.8 30 -2
      vertex 0.309016 15.9511 -2
      vertex -0.309016 15.9511 -2
    endloop
  endfacet
  facet normal 0 0 -1
    outer loop
      vertex 2.8 30 -2
      vertex -2.8 30 -2
      vertex 0.309016 31.5489 -2
    endloop
  endfacet
  facet normal 0 0 -1
    outer loop
      vertex -2.8 30 -2
      vertex -0.309016 15.9511 -2
      vertex -0.809016 15.5878 -2
    endloop
  endfacet
  facet normal -0 0 -1
    outer loop
      vertex 0.309016 31.5489 -2
      vertex -2.8 30 -2
      vertex -0.309016 31.5489 -2
    endloop
  endfacet
  facet normal 0 0 -1
    outer loop
      vertex -2.8 30 -2
      vertex -0.809016 15.5878 -2
      vertex -1 15 -2
    endloop
  endfacet
  facet normal -0 0 -1
    outer loop
      vertex -0.309016 31.5489 -2
      vertex -2.8 30 -2
      vertex -0.809016 31.9122 -2
    endloop
  endfacet
  facet normal 0 0 -1
    outer loop
      vertex 0.809016 -14.4122 -2
      vertex 1 15 -2
      vertex 1 -15 -2
    endloop
  endfacet
  facet normal 0 0 -1
    outer loop
      vertex 0.809016 -14.4122 -2
      vertex 0.809016 14.4122 -2
      vertex 1 15 -2
    endloop
  endfacet
  facet normal 0 0 -1
    outer loop
      vertex 0.309016 -14.0489 -2
      vertex 0.809016 14.4122 -2
      vertex 0.809016 -14.4122 -2
    endloop
  endfacet
  facet normal 0 0 -1
    outer loop
      vertex 0.309016 -14.0489 -2
      vertex 0.309016 14.0489 -2
      vertex 0.809016 14.4122 -2
    endloop
  endfacet
  facet normal 0 0 -1
    outer loop
      vertex -0.309016 -14.0489 -2
      vertex 0.309016 14.0489 -2
      vertex 0.309016 -14.0489 -2
    endloop
  endfacet
  facet normal 0 0 -1
    outer loop
      vertex -0.309016 -14.0489 -2
      vertex -0.309016 14.0489 -2
      vertex 0.309016 14.0489 -2
    endloop
  endfacet
  facet normal 0 0 -1
    outer loop
      vertex -0.809016 -14.4122 -2
      vertex -0.309016 14.0489 -2
      vertex -0.309016 -14.0489 -2
    endloop
  endfacet
  facet normal 0 0 -1
    outer loop
      vertex -0.809016 -14.4122 -2
      vertex -0.809016 14.4122 -2
      vertex -0.309016 14.0489 -2
    endloop
  endfacet
  facet normal 0 0 -1
    outer loop
      vertex -1 -15 -2
      vertex -0.809016 14.4122 -2
      vertex -0.809016 -14.4122 -2
    endloop
  endfacet
  facet normal -0 0 -1
    outer loop
      vertex -0.809016 14.4122 -2
      vertex -1 -15 -2
      vertex -1 15 -2
    endloop
  endfacet
  facet normal 0 0 -1
    outer loop
      vertex 0.309016 -31.5489 -2
      vertex 2.8 -30 -2
      vertex 0.809016 -31.9122 -2
    endloop
  endfacet
  facet normal 0 0 -1
    outer loop
      vertex 2.8 -30 -2
      vertex 0.809016 -15.5878 -2
      vertex 1 -15 -2
    endloop
  endfacet
  facet normal 0 0 -1
    outer loop
      vertex -2.8 -30 -2
      vertex 2.8 -30 -2
      vertex 0.309016 -31.5489 -2
    endloop
  endfacet
  facet normal 0 0 -1
    outer loop
      vertex 2.8 -30 -2
      vertex 0.309016 -15.9511 -2
      vertex 0.809016 -15.5878 -2
    endloop
  endfacet
  facet normal 0 0 -1
    outer loop
      vertex -2.8 -30 -2
      vertex 0.309016 -31.5489 -2
      vertex -0.309016 -31.5489 -2
    endloop
  endfacet
  facet normal 0 0 -1
    outer loop
      vertex 2.8 -30 -2
      vertex -2.8 -30 -2
      vertex 0.309016 -15.9511 -2
    endloop
  endfacet
  facet normal 0 0 -1
    outer loop
      vertex -2.8 -30 -2
      vertex -0.309016 -31.5489 -2
      vertex -0.809016 -31.9122 -2
    endloop
  endfacet
  facet normal -0 0 -1
    outer loop
      vertex 0.309016 -15.9511 -2
      vertex -2.8 -30 -2
      vertex -0.309016 -15.9511 -2
    endloop
  endfacet
  facet normal 0 0 -1
    outer loop
      vertex -2.8 -30 -2
      vertex -0.809016 -31.9122 -2
      vertex -1 -32.5 -2
    endloop
  endfacet
  facet normal -0 0 -1
    outer loop
      vertex -0.309016 -15.9511 -2
      vertex -2.8 -30 -2
      vertex -0.809016 -15.5878 -2
    endloop
  endfacet
  facet normal 0 0 -1
    outer loop
      vertex 1 -32.5 -2
      vertex 2.8 -30 -2
      vertex 2.8 -35 -2
    endloop
  endfacet
  facet normal 0 0 -1
    outer loop
      vertex 2.8 -30 -2
      vertex 1 -15 -2
      vertex 2.8 30 -2
    endloop
  endfacet
  facet normal 0 0 -1
    outer loop
      vertex 0.809016 -31.9122 -2
      vertex 2.8 -30 -2
      vertex 1 -32.5 -2
    endloop
  endfacet
  facet normal 0 0 -1
    outer loop
      vertex 2.8 -35 -2
      vertex 0.809016 -33.0878 -2
      vertex 1 -32.5 -2
    endloop
  endfacet
  facet normal 0 0 -1
    outer loop
      vertex 2.8 -35 -2
      vertex 0.309016 -33.4511 -2
      vertex 0.809016 -33.0878 -2
    endloop
  endfacet
  facet normal 0 0 -1
    outer loop
      vertex 2.8 -35 -2
      vertex -0.309016 -33.4511 -2
      vertex 0.309016 -33.4511 -2
    endloop
  endfacet
  facet normal -0 0 -1
    outer loop
      vertex -0.809016 -15.5878 -2
      vertex -2.8 -30 -2
      vertex -1 -15 -2
    endloop
  endfacet
  facet normal -0 0 -1
    outer loop
      vertex -1 -15 -2
      vertex -2.8 -30 -2
      vertex -1 15 -2
    endloop
  endfacet
  facet normal 0 0 -1
    outer loop
      vertex -2.8 -30 -2
      vertex -1 -32.5 -2
      vertex -2.8 -35 -2
    endloop
  endfacet
  facet normal -0 0 -1
    outer loop
      vertex -0.809016 -33.0878 -2
      vertex -2.8 -35 -2
      vertex -1 -32.5 -2
    endloop
  endfacet
  facet normal -0 0 -1
    outer loop
      vertex -0.309016 -33.4511 -2
      vertex -2.8 -35 -2
      vertex -0.809016 -33.0878 -2
    endloop
  endfacet
  facet normal 0 0 -1
    outer loop
      vertex -2.8 -35 -2
      vertex -0.309016 -33.4511 -2
      vertex 2.8 -35 -2
    endloop
  endfacet
  facet normal 0 0 -1
    outer loop
      vertex 1 15 -2
      vertex 2.8 30 -2
      vertex 1 -15 -2
    endloop
  endfacet
  facet normal 0 0 -1
    outer loop
      vertex 0.809016 15.5878 -2
      vertex 2.8 30 -2
      vertex 1 15 -2
    endloop
  endfacet
  facet normal 0 0 -1
    outer loop
      vertex 2.8 30 -2
      vertex 1 32.5 -2
      vertex 2.8 35 -2
    endloop
  endfacet
  facet normal 0 0 -1
    outer loop
      vertex 0.809016 33.0878 -2
      vertex 2.8 35 -2
      vertex 1 32.5 -2
    endloop
  endfacet
  facet normal 0 0 -1
    outer loop
      vertex 0.309016 33.4511 -2
      vertex 2.8 35 -2
      vertex 0.809016 33.0878 -2
    endloop
  endfacet
  facet normal 0 0 -1
    outer loop
      vertex -0.309016 33.4511 -2
      vertex 2.8 35 -2
      vertex 0.309016 33.4511 -2
    endloop
  endfacet
  facet normal 0 0 -1
    outer loop
      vertex -2.8 30 -2
      vertex -1 15 -2
      vertex -2.8 -30 -2
    endloop
  endfacet
  facet normal -0 0 -1
    outer loop
      vertex -0.809016 31.9122 -2
      vertex -2.8 30 -2
      vertex -1 32.5 -2
    endloop
  endfacet
  facet normal 0 0 -1
    outer loop
      vertex -2.8 35 -2
      vertex -1 32.5 -2
      vertex -2.8 30 -2
    endloop
  endfacet
  facet normal 0 0 -1
    outer loop
      vertex -0.309016 33.4511 -2
      vertex -2.8 35 -2
      vertex 2.8 35 -2
    endloop
  endfacet
  facet normal 0 0 -1
    outer loop
      vertex -0.809016 33.0878 -2
      vertex -2.8 35 -2
      vertex -0.309016 33.4511 -2
    endloop
  endfacet
  facet normal 0 0 -1
    outer loop
      vertex -1 32.5 -2
      vertex -2.8 35 -2
      vertex -0.809016 33.0878 -2
    endloop
  endfacet
  facet normal 0 -1 0
    outer loop
      vertex -2.8 -30 2
      vertex -2.8 -30 -2
      vertex -1.8 -30 2
    endloop
  endfacet
  facet normal 0 -1 0
    outer loop
      vertex -3.67382e-015 -30 -2
      vertex 2.8 -30 2
      vertex -3.67382e-015 -30 2
    endloop
  endfacet
  facet normal 0 -1 -0
    outer loop
      vertex 2.8 -30 2
      vertex -3.67382e-015 -30 -2
      vertex 2.8 -30 -2
    endloop
  endfacet
  facet normal 0 1 -0
    outer loop
      vertex 2.8 30 -2
      vertex 1.8 30 2
      vertex 2.8 30 2
    endloop
  endfacet
  facet normal 0 1 0
    outer loop
      vertex -1.8 30 2
      vertex -2.8 30 -2
      vertex -2.8 30 2
    endloop
  endfacet
  facet normal -0.951056 -0.309018 0
    outer loop
      vertex 1 15 -2
      vertex 0.809016 15.5878 2
      vertex 0.809016 15.5878 -2
    endloop
  endfacet
  facet normal -0.951056 -0.309018 0
    outer loop
      vertex 0.809016 15.5878 2
      vertex 1 15 -2
      vertex 1 15 2
    endloop
  endfacet
  facet normal 0 -1 0
    outer loop
      vertex -0.309016 15.9511 -2
      vertex 0.309016 15.9511 2
      vertex -0.309016 15.9511 2
    endloop
  endfacet
  facet normal 0 -1 -0
    outer loop
      vertex 0.309016 15.9511 2
      vertex -0.309016 15.9511 -2
      vertex 0.309016 15.9511 -2
    endloop
  endfacet
  facet normal -0.587786 -0.809017 0
    outer loop
      vertex 0.309016 15.9511 -2
      vertex 0.809016 15.5878 2
      vertex 0.309016 15.9511 2
    endloop
  endfacet
  facet normal -0.587786 -0.809017 -0
    outer loop
      vertex 0.809016 15.5878 2
      vertex 0.309016 15.9511 -2
      vertex 0.809016 15.5878 -2
    endloop
  endfacet
  facet normal -0.587786 0.809017 0
    outer loop
      vertex 0.809016 14.4122 -2
      vertex 0.309016 14.0489 2
      vertex 0.809016 14.4122 2
    endloop
  endfacet
  facet normal -0.587786 0.809017 0
    outer loop
      vertex 0.309016 14.0489 2
      vertex 0.809016 14.4122 -2
      vertex 0.309016 14.0489 -2
    endloop
  endfacet
  facet normal 0.587786 0.809017 -0
    outer loop
      vertex -0.309016 14.0489 -2
      vertex -0.809016 14.4122 2
      vertex -0.309016 14.0489 2
    endloop
  endfacet
  facet normal 0.587786 0.809017 0
    outer loop
      vertex -0.809016 14.4122 2
      vertex -0.309016 14.0489 -2
      vertex -0.809016 14.4122 -2
    endloop
  endfacet
  facet normal 0.951056 -0.309018 0
    outer loop
      vertex -1 15 2
      vertex -0.809016 15.5878 -2
      vertex -0.809016 15.5878 2
    endloop
  endfacet
  facet normal 0.951056 -0.309018 0
    outer loop
      vertex -0.809016 15.5878 -2
      vertex -1 15 2
      vertex -1 15 -2
    endloop
  endfacet
  facet normal 0.951056 0.309018 0
    outer loop
      vertex -0.809016 14.4122 2
      vertex -1 15 -2
      vertex -1 15 2
    endloop
  endfacet
  facet normal 0.951056 0.309018 0
    outer loop
      vertex -1 15 -2
      vertex -0.809016 14.4122 2
      vertex -0.809016 14.4122 -2
    endloop
  endfacet
  facet normal 0.587786 -0.809017 0
    outer loop
      vertex -0.809016 15.5878 -2
      vertex -0.309016 15.9511 2
      vertex -0.809016 15.5878 2
    endloop
  endfacet
  facet normal 0.587786 -0.809017 0
    outer loop
      vertex -0.309016 15.9511 2
      vertex -0.809016 15.5878 -2
      vertex -0.309016 15.9511 -2
    endloop
  endfacet
  facet normal -0.951056 0.309018 0
    outer loop
      vertex 0.809016 14.4122 -2
      vertex 1 15 2
      vertex 1 15 -2
    endloop
  endfacet
  facet normal -0.951056 0.309018 0
    outer loop
      vertex 1 15 2
      vertex 0.809016 14.4122 -2
      vertex 0.809016 14.4122 2
    endloop
  endfacet
  facet normal 0 1 -0
    outer loop
      vertex 0.309016 14.0489 -2
      vertex -0.309016 14.0489 2
      vertex 0.309016 14.0489 2
    endloop
  endfacet
  facet normal 0 1 0
    outer loop
      vertex -0.309016 14.0489 2
      vertex 0.309016 14.0489 -2
      vertex -0.309016 14.0489 -2
    endloop
  endfacet
  facet normal -0.951056 -0.309018 0
    outer loop
      vertex 1 -15 -2
      vertex 0.809016 -14.4122 2
      vertex 0.809016 -14.4122 -2
    endloop
  endfacet
  facet normal -0.951056 -0.309018 0
    outer loop
      vertex 0.809016 -14.4122 2
      vertex 1 -15 -2
      vertex 1 -15 2
    endloop
  endfacet
  facet normal 0.951056 -0.309018 0
    outer loop
      vertex -1 -15 2
      vertex -0.809016 -14.4122 -2
      vertex -0.809016 -14.4122 2
    endloop
  endfacet
  facet normal 0.951056 -0.309018 0
    outer loop
      vertex -0.809016 -14.4122 -2
      vertex -1 -15 2
      vertex -1 -15 -2
    endloop
  endfacet
  facet normal 0 -1 0
    outer loop
      vertex -0.309016 -14.0489 -2
      vertex 0.309016 -14.0489 2
      vertex -0.309016 -14.0489 2
    endloop
  endfacet
  facet normal 0 -1 -0
    outer loop
      vertex 0.309016 -14.0489 2
      vertex -0.309016 -14.0489 -2
      vertex 0.309016 -14.0489 -2
    endloop
  endfacet
  facet normal -0.587786 -0.809017 0
    outer loop
      vertex 0.309016 -14.0489 -2
      vertex 0.809016 -14.4122 2
      vertex 0.309016 -14.0489 2
    endloop
  endfacet
  facet normal -0.587786 -0.809017 -0
    outer loop
      vertex 0.809016 -14.4122 2
      vertex 0.309016 -14.0489 -2
      vertex 0.809016 -14.4122 -2
    endloop
  endfacet
  facet normal 0.587786 -0.809017 0
    outer loop
      vertex -0.809016 -14.4122 -2
      vertex -0.309016 -14.0489 2
      vertex -0.809016 -14.4122 2
    endloop
  endfacet
  facet normal 0.587786 -0.809017 0
    outer loop
      vertex -0.309016 -14.0489 2
      vertex -0.809016 -14.4122 -2
      vertex -0.309016 -14.0489 -2
    endloop
  endfacet
  facet normal -0.951056 0.309018 0
    outer loop
      vertex 0.809016 -15.5878 -2
      vertex 1 -15 2
      vertex 1 -15 -2
    endloop
  endfacet
  facet normal -0.951056 0.309018 0
    outer loop
      vertex 1 -15 2
      vertex 0.809016 -15.5878 -2
      vertex 0.809016 -15.5878 2
    endloop
  endfacet
  facet normal 0.951056 0.309018 0
    outer loop
      vertex -0.809016 -15.5878 2
      vertex -1 -15 -2
      vertex -1 -15 2
    endloop
  endfacet
  facet normal 0.951056 0.309018 0
    outer loop
      vertex -1 -15 -2
      vertex -0.809016 -15.5878 2
      vertex -0.809016 -15.5878 -2
    endloop
  endfacet
  facet normal 0 1 -0
    outer loop
      vertex 0.309016 -15.9511 -2
      vertex -0.309016 -15.9511 2
      vertex 0.309016 -15.9511 2
    endloop
  endfacet
  facet normal 0 1 0
    outer loop
      vertex -0.309016 -15.9511 2
      vertex 0.309016 -15.9511 -2
      vertex -0.309016 -15.9511 -2
    endloop
  endfacet
  facet normal -0.587786 0.809017 0
    outer loop
      vertex 0.809016 -15.5878 -2
      vertex 0.309016 -15.9511 2
      vertex 0.809016 -15.5878 2
    endloop
  endfacet
  facet normal -0.587786 0.809017 0
    outer loop
      vertex 0.309016 -15.9511 2
      vertex 0.809016 -15.5878 -2
      vertex 0.309016 -15.9511 -2
    endloop
  endfacet
  facet normal 0.587786 0.809017 -0
    outer loop
      vertex -0.309016 -15.9511 -2
      vertex -0.809016 -15.5878 2
      vertex -0.309016 -15.9511 2
    endloop
  endfacet
  facet normal 0.587786 0.809017 0
    outer loop
      vertex -0.809016 -15.5878 2
      vertex -0.309016 -15.9511 -2
      vertex -0.809016 -15.5878 -2
    endloop
  endfacet
  facet normal -0.970143 0 0.242536
    outer loop
      vertex -2.02254 33.9695 1.10983
      vertex -1.8 35 2
      vertex -2.8 35 -2
    endloop
  endfacet
  facet normal -0.970143 0 0.242536
    outer loop
      vertex -1.8 35 2
      vertex -2.02254 33.9695 1.10983
      vertex -1.8 34.1311 2
    endloop
  endfacet
  facet normal -0.970143 0 0.242536
    outer loop
      vertex -2.8 35 -2
      vertex -2.3 33.1155 0
      vertex -2.02254 33.9695 1.10983
    endloop
  endfacet
  facet normal -0.970143 0 0.242536
    outer loop
      vertex -2.8 35 -2
      vertex -2.3 31.8845 0
      vertex -2.3 33.1155 0
    endloop
  endfacet
  facet normal -0.970143 0 0.242536
    outer loop
      vertex -2.8 30 -2
      vertex -2.3 31.8845 0
      vertex -2.8 35 -2
    endloop
  endfacet
  facet normal -0.970143 0 0.242536
    outer loop
      vertex -2.8 30 -2
      vertex -2.02254 31.0305 1.10983
      vertex -2.3 31.8845 0
    endloop
  endfacet
  facet normal -0.970143 0 0.242536
    outer loop
      vertex -1.8 30 2
      vertex -2.02254 31.0305 1.10983
      vertex -2.8 30 -2
    endloop
  endfacet
  facet normal -0.970143 0 0.242536
    outer loop
      vertex -2.02254 31.0305 1.10983
      vertex -1.8 30 2
      vertex -1.8 30.8689 2
    endloop
  endfacet
  facet normal 0.970143 0 0.242536
    outer loop
      vertex 2.02254 33.9695 1.10983
      vertex 1.8 35 2
      vertex 1.8 34.1311 2
    endloop
  endfacet
  facet normal 0.970143 0 0.242536
    outer loop
      vertex 1.8 35 2
      vertex 2.02254 33.9695 1.10983
      vertex 2.8 35 -2
    endloop
  endfacet
  facet normal 0.970143 0 0.242536
    outer loop
      vertex 2.3 33.1155 0
      vertex 2.8 35 -2
      vertex 2.02254 33.9695 1.10983
    endloop
  endfacet
  facet normal 0.970143 -0 0.242536
    outer loop
      vertex 2.3 31.8845 0
      vertex 2.8 35 -2
      vertex 2.3 33.1155 0
    endloop
  endfacet
  facet normal 0.970143 -0 0.242536
    outer loop
      vertex 1.8 30 2
      vertex 2.02254 31.0305 1.10983
      vertex 1.8 30.8689 2
    endloop
  endfacet
  facet normal 0.970143 0 0.242536
    outer loop
      vertex 2.8 30 -2
      vertex 2.02254 31.0305 1.10983
      vertex 1.8 30 2
    endloop
  endfacet
  facet normal 0.970143 0 0.242536
    outer loop
      vertex 2.3 31.8845 0
      vertex 2.8 30 -2
      vertex 2.8 35 -2
    endloop
  endfacet
  facet normal 0.970143 0 0.242536
    outer loop
      vertex 2.02254 31.0305 1.10983
      vertex 2.8 30 -2
      vertex 2.3 31.8845 0
    endloop
  endfacet
  facet normal 0 0 1
    outer loop
      vertex 1.8 35 2
      vertex 0.772542 34.8776 2
      vertex 1.8 34.1311 2
    endloop
  endfacet
  facet normal 0 0 1
    outer loop
      vertex 1.8 35 2
      vertex -0.772542 34.8776 2
      vertex 0.772542 34.8776 2
    endloop
  endfacet
  facet normal -0 0 1
    outer loop
      vertex -1.8 35 2
      vertex -0.772542 34.8776 2
      vertex 1.8 35 2
    endloop
  endfacet
  facet normal 0 0 1
    outer loop
      vertex -0.772542 34.8776 2
      vertex -1.8 35 2
      vertex -1.8 34.1311 2
    endloop
  endfacet
  facet normal 0 1 0
    outer loop
      vertex 2.8 35 -2
      vertex -1.8 35 2
      vertex 1.8 35 2
    endloop
  endfacet
  facet normal 0 1 0
    outer loop
      vertex -1.8 35 2
      vertex 2.8 35 -2
      vertex -2.8 35 -2
    endloop
  endfacet
  facet normal -0.951056 -0.309019 0
    outer loop
      vertex 1 32.5 -2
      vertex 0.809016 33.0878 0
      vertex 0.809016 33.0878 -2
    endloop
  endfacet
  facet normal -0.951056 -0.309019 0
    outer loop
      vertex 0.809016 33.0878 0
      vertex 1 32.5 -2
      vertex 1 32.5 0
    endloop
  endfacet
  facet normal 0.951056 -0.309019 0
    outer loop
      vertex -1 32.5 0
      vertex -0.809016 33.0878 -2
      vertex -0.809016 33.0878 0
    endloop
  endfacet
  facet normal 0.951056 -0.309019 0
    outer loop
      vertex -0.809016 33.0878 -2
      vertex -1 32.5 0
      vertex -1 32.5 -2
    endloop
  endfacet
  facet normal 0 1 -0
    outer loop
      vertex 0.309016 31.5489 -2
      vertex -0.309016 31.5489 0
      vertex 0.309016 31.5489 0
    endloop
  endfacet
  facet normal 0 1 0
    outer loop
      vertex -0.309016 31.5489 0
      vertex 0.309016 31.5489 -2
      vertex -0.309016 31.5489 -2
    endloop
  endfacet
  facet normal 0 -1 0
    outer loop
      vertex -0.309016 33.4511 -2
      vertex 0.309016 33.4511 0
      vertex -0.309016 33.4511 0
    endloop
  endfacet
  facet normal 0 -1 -0
    outer loop
      vertex 0.309016 33.4511 0
      vertex -0.309016 33.4511 -2
      vertex 0.309016 33.4511 -2
    endloop
  endfacet
  facet normal -0.587788 -0.809015 0
    outer loop
      vertex 0.309016 33.4511 -2
      vertex 0.809016 33.0878 0
      vertex 0.309016 33.4511 0
    endloop
  endfacet
  facet normal -0.587788 -0.809015 -0
    outer loop
      vertex 0.809016 33.0878 0
      vertex 0.309016 33.4511 -2
      vertex 0.809016 33.0878 -2
    endloop
  endfacet
  facet normal 0.587788 -0.809015 0
    outer loop
      vertex -0.809016 33.0878 -2
      vertex -0.309016 33.4511 0
      vertex -0.809016 33.0878 0
    endloop
  endfacet
  facet normal 0.587788 -0.809015 0
    outer loop
      vertex -0.309016 33.4511 0
      vertex -0.809016 33.0878 -2
      vertex -0.309016 33.4511 -2
    endloop
  endfacet
  facet normal 0.951056 0.309019 0
    outer loop
      vertex -0.809016 31.9122 0
      vertex -1 32.5 -2
      vertex -1 32.5 0
    endloop
  endfacet
  facet normal 0.951056 0.309019 0
    outer loop
      vertex -1 32.5 -2
      vertex -0.809016 31.9122 0
      vertex -0.809016 31.9122 -2
    endloop
  endfacet
  facet normal -0.587788 0.809015 0
    outer loop
      vertex 0.809016 31.9122 -2
      vertex 0.309016 31.5489 0
      vertex 0.809016 31.9122 0
    endloop
  endfacet
  facet normal -0.587788 0.809015 0
    outer loop
      vertex 0.309016 31.5489 0
      vertex 0.809016 31.9122 -2
      vertex 0.309016 31.5489 -2
    endloop
  endfacet
  facet normal 0.587788 0.809015 -0
    outer loop
      vertex -0.309016 31.5489 -2
      vertex -0.809016 31.9122 0
      vertex -0.309016 31.5489 0
    endloop
  endfacet
  facet normal 0.587788 0.809015 0
    outer loop
      vertex -0.809016 31.9122 0
      vertex -0.309016 31.5489 -2
      vertex -0.809016 31.9122 -2
    endloop
  endfacet
  facet normal -0.951056 0.309019 0
    outer loop
      vertex 0.809016 31.9122 -2
      vertex 1 32.5 0
      vertex 1 32.5 -2
    endloop
  endfacet
  facet normal -0.951056 0.309019 0
    outer loop
      vertex 1 32.5 0
      vertex 0.809016 31.9122 -2
      vertex 0.809016 31.9122 0
    endloop
  endfacet
  facet normal -0.951056 -0.309018 0
    outer loop
      vertex 2.3 33.1155 0
      vertex 2.02254 33.9695 1.10983
      vertex 2.02254 33.9695 0
    endloop
  endfacet
  facet normal 0.951056 -0.309018 0
    outer loop
      vertex -2.02254 33.9695 0
      vertex -2.02254 33.9695 1.10983
      vertex -2.3 33.1155 0
    endloop
  endfacet
  facet normal 0 1 -0
    outer loop
      vertex 0.772542 30.1224 0
      vertex -0.772542 30.1224 2
      vertex 0.772542 30.1224 2
    endloop
  endfacet
  facet normal 0 1 0
    outer loop
      vertex -0.772542 30.1224 2
      vertex 0.772542 30.1224 0
      vertex -0.772542 30.1224 0
    endloop
  endfacet
  facet normal 0 -1 0
    outer loop
      vertex -0.772542 34.8776 0
      vertex 0.772542 34.8776 2
      vertex -0.772542 34.8776 2
    endloop
  endfacet
  facet normal 0 -1 -0
    outer loop
      vertex 0.772542 34.8776 2
      vertex -0.772542 34.8776 0
      vertex 0.772542 34.8776 0
    endloop
  endfacet
  facet normal -0.587785 -0.809017 -5.84282e-007
    outer loop
      vertex 0.772542 34.8776 2
      vertex 2.02254 33.9695 1.10983
      vertex 1.8 34.1311 2
    endloop
  endfacet
  facet normal -0.587785 -0.809018 0
    outer loop
      vertex 0.772542 34.8776 0
      vertex 2.02254 33.9695 1.10983
      vertex 0.772542 34.8776 2
    endloop
  endfacet
  facet normal -0.587785 -0.809018 -0
    outer loop
      vertex 2.02254 33.9695 1.10983
      vertex 0.772542 34.8776 0
      vertex 2.02254 33.9695 0
    endloop
  endfacet
  facet normal 0.587785 -0.809017 -5.84282e-007
    outer loop
      vertex -2.02254 33.9695 1.10983
      vertex -0.772542 34.8776 2
      vertex -1.8 34.1311 2
    endloop
  endfacet
  facet normal 0.587785 -0.809018 0
    outer loop
      vertex -0.772542 34.8776 0
      vertex -2.02254 33.9695 1.10983
      vertex -2.02254 33.9695 0
    endloop
  endfacet
  facet normal 0.587785 -0.809018 0
    outer loop
      vertex -2.02254 33.9695 1.10983
      vertex -0.772542 34.8776 0
      vertex -0.772542 34.8776 2
    endloop
  endfacet
  facet normal 0.951057 0.309017 0
    outer loop
      vertex -2.02254 31.0305 1.10983
      vertex -2.02254 31.0305 0
      vertex -2.3 31.8845 0
    endloop
  endfacet
  facet normal 0 0 1
    outer loop
      vertex 0.809016 33.0878 0
      vertex 2.3 33.1155 0
      vertex 2.02254 33.9695 0
    endloop
  endfacet
  facet normal 0 0 1
    outer loop
      vertex 2.3 33.1155 0
      vertex 1 32.5 0
      vertex 2.3 31.8845 0
    endloop
  endfacet
  facet normal -0 0 1
    outer loop
      vertex 0.809016 31.9122 0
      vertex 2.3 31.8845 0
      vertex 1 32.5 0
    endloop
  endfacet
  facet normal 0 0 1
    outer loop
      vertex 2.3 33.1155 0
      vertex 0.809016 33.0878 0
      vertex 1 32.5 0
    endloop
  endfacet
  facet normal 0 0 1
    outer loop
      vertex 0.772542 34.8776 0
      vertex 0.809016 33.0878 0
      vertex 2.02254 33.9695 0
    endloop
  endfacet
  facet normal 0 0 1
    outer loop
      vertex 0.772542 34.8776 0
      vertex 0.309016 33.4511 0
      vertex 0.809016 33.0878 0
    endloop
  endfacet
  facet normal 0 0 1
    outer loop
      vertex 0.772542 34.8776 0
      vertex -0.309016 33.4511 0
      vertex 0.309016 33.4511 0
    endloop
  endfacet
  facet normal -0 0 1
    outer loop
      vertex -0.772542 34.8776 0
      vertex -0.309016 33.4511 0
      vertex 0.772542 34.8776 0
    endloop
  endfacet
  facet normal 0 0 1
    outer loop
      vertex -0.772542 34.8776 0
      vertex -0.809016 33.0878 0
      vertex -0.309016 33.4511 0
    endloop
  endfacet
  facet normal -0 0 1
    outer loop
      vertex -2.02254 33.9695 0
      vertex -0.809016 33.0878 0
      vertex -0.772542 34.8776 0
    endloop
  endfacet
  facet normal -0 0 1
    outer loop
      vertex -2.3 33.1155 0
      vertex -0.809016 33.0878 0
      vertex -2.02254 33.9695 0
    endloop
  endfacet
  facet normal 0 0 1
    outer loop
      vertex 2.3 31.8845 0
      vertex 0.809016 31.9122 0
      vertex 2.02254 31.0305 0
    endloop
  endfacet
  facet normal 0 0 1
    outer loop
      vertex 0.809016 31.9122 0
      vertex 0.772542 30.1224 0
      vertex 2.02254 31.0305 0
    endloop
  endfacet
  facet normal -0 0 1
    outer loop
      vertex 0.309016 31.5489 0
      vertex 0.772542 30.1224 0
      vertex 0.809016 31.9122 0
    endloop
  endfacet
  facet normal -0 0 1
    outer loop
      vertex -0.309016 31.5489 0
      vertex 0.772542 30.1224 0
      vertex 0.309016 31.5489 0
    endloop
  endfacet
  facet normal 0 0 1
    outer loop
      vertex -0.309016 31.5489 0
      vertex -0.772542 30.1224 0
      vertex 0.772542 30.1224 0
    endloop
  endfacet
  facet normal 0 0 1
    outer loop
      vertex -0.809016 31.9122 0
      vertex -0.772542 30.1224 0
      vertex -0.309016 31.5489 0
    endloop
  endfacet
  facet normal 0 0 1
    outer loop
      vertex -2.3 31.8845 0
      vertex -0.809016 31.9122 0
      vertex -1 32.5 0
    endloop
  endfacet
  facet normal 0 0 1
    outer loop
      vertex -0.809016 33.0878 0
      vertex -2.3 33.1155 0
      vertex -1 32.5 0
    endloop
  endfacet
  facet normal 0 0 1
    outer loop
      vertex -2.3 31.8845 0
      vertex -1 32.5 0
      vertex -2.3 33.1155 0
    endloop
  endfacet
  facet normal 0 0 1
    outer loop
      vertex -0.809016 31.9122 0
      vertex -2.3 31.8845 0
      vertex -2.02254 31.0305 0
    endloop
  endfacet
  facet normal 0 0 1
    outer loop
      vertex -0.809016 31.9122 0
      vertex -2.02254 31.0305 0
      vertex -0.772542 30.1224 0
    endloop
  endfacet
  facet normal -0.587785 0.809017 -5.84282e-007
    outer loop
      vertex 2.02254 31.0305 1.10983
      vertex 0.772542 30.1224 2
      vertex 1.8 30.8689 2
    endloop
  endfacet
  facet normal -0.587785 0.809018 0
    outer loop
      vertex 0.772542 30.1224 0
      vertex 2.02254 31.0305 1.10983
      vertex 2.02254 31.0305 0
    endloop
  endfacet
  facet normal -0.587785 0.809018 0
    outer loop
      vertex 2.02254 31.0305 1.10983
      vertex 0.772542 30.1224 0
      vertex 0.772542 30.1224 2
    endloop
  endfacet
  facet normal 0.587785 0.809017 -5.84282e-007
    outer loop
      vertex -0.772542 30.1224 2
      vertex -2.02254 31.0305 1.10983
      vertex -1.8 30.8689 2
    endloop
  endfacet
  facet normal 0.587785 0.809018 -0
    outer loop
      vertex -0.772542 30.1224 0
      vertex -2.02254 31.0305 1.10983
      vertex -0.772542 30.1224 2
    endloop
  endfacet
  facet normal 0.587785 0.809018 0
    outer loop
      vertex -2.02254 31.0305 1.10983
      vertex -0.772542 30.1224 0
      vertex -2.02254 31.0305 0
    endloop
  endfacet
  facet normal -0.951057 0.309017 0
    outer loop
      vertex 2.02254 31.0305 1.10983
      vertex 2.3 31.8845 0
      vertex 2.02254 31.0305 0
    endloop
  endfacet
  facet normal 0.970143 0 0.242536
    outer loop
      vertex 2.02254 -31.0305 1.10983
      vertex 1.8 -30 2
      vertex 1.8 -30.8689 2
    endloop
  endfacet
  facet normal 0.970143 0 0.242536
    outer loop
      vertex 1.8 -30 2
      vertex 2.02254 -31.0305 1.10983
      vertex 2.8 -30 -2
    endloop
  endfacet
  facet normal 0.970143 0 0.242536
    outer loop
      vertex 2.3 -31.8845 0
      vertex 2.8 -30 -2
      vertex 2.02254 -31.0305 1.10983
    endloop
  endfacet
  facet normal 0.970143 -0 0.242536
    outer loop
      vertex 2.3 -33.1155 0
      vertex 2.8 -30 -2
      vertex 2.3 -31.8845 0
    endloop
  endfacet
  facet normal 0.970143 -0 0.242536
    outer loop
      vertex 1.8 -35 2
      vertex 2.02254 -33.9695 1.10983
      vertex 1.8 -34.1311 2
    endloop
  endfacet
  facet normal 0.970143 0 0.242536
    outer loop
      vertex 2.8 -35 -2
      vertex 2.02254 -33.9695 1.10983
      vertex 1.8 -35 2
    endloop
  endfacet
  facet normal 0.970143 0 0.242536
    outer loop
      vertex 2.3 -33.1155 0
      vertex 2.8 -35 -2
      vertex 2.8 -30 -2
    endloop
  endfacet
  facet normal 0.970143 0 0.242536
    outer loop
      vertex 2.02254 -33.9695 1.10983
      vertex 2.8 -35 -2
      vertex 2.3 -33.1155 0
    endloop
  endfacet
  facet normal -0.970143 0 0.242536
    outer loop
      vertex -2.02254 -31.0305 1.10983
      vertex -1.8 -30 2
      vertex -2.8 -30 -2
    endloop
  endfacet
  facet normal -0.970143 0 0.242536
    outer loop
      vertex -1.8 -30 2
      vertex -2.02254 -31.0305 1.10983
      vertex -1.8 -30.8689 2
    endloop
  endfacet
  facet normal -0.970143 0 0.242536
    outer loop
      vertex -2.8 -30 -2
      vertex -2.3 -31.8845 0
      vertex -2.02254 -31.0305 1.10983
    endloop
  endfacet
  facet normal -0.970143 0 0.242536
    outer loop
      vertex -2.8 -30 -2
      vertex -2.3 -33.1155 0
      vertex -2.3 -31.8845 0
    endloop
  endfacet
  facet normal -0.970143 0 0.242536
    outer loop
      vertex -2.8 -35 -2
      vertex -2.3 -33.1155 0
      vertex -2.8 -30 -2
    endloop
  endfacet
  facet normal -0.970143 0 0.242536
    outer loop
      vertex -2.8 -35 -2
      vertex -2.02254 -33.9695 1.10983
      vertex -2.3 -33.1155 0
    endloop
  endfacet
  facet normal -0.970143 0 0.242536
    outer loop
      vertex -1.8 -35 2
      vertex -2.02254 -33.9695 1.10983
      vertex -2.8 -35 -2
    endloop
  endfacet
  facet normal -0.970143 0 0.242536
    outer loop
      vertex -2.02254 -33.9695 1.10983
      vertex -1.8 -35 2
      vertex -1.8 -34.1311 2
    endloop
  endfacet
  facet normal -0 0 1
    outer loop
      vertex 0.772542 -34.8776 2
      vertex 1.8 -35 2
      vertex 1.8 -34.1311 2
    endloop
  endfacet
  facet normal -0 0 1
    outer loop
      vertex -0.772542 -34.8776 2
      vertex 1.8 -35 2
      vertex 0.772542 -34.8776 2
    endloop
  endfacet
  facet normal 0 0 1
    outer loop
      vertex -0.772542 -34.8776 2
      vertex -1.8 -35 2
      vertex 1.8 -35 2
    endloop
  endfacet
  facet normal 0 0 1
    outer loop
      vertex -1.8 -35 2
      vertex -0.772542 -34.8776 2
      vertex -1.8 -34.1311 2
    endloop
  endfacet
  facet normal 0 -1 0
    outer loop
      vertex -2.8 -35 -2
      vertex 1.8 -35 2
      vertex -1.8 -35 2
    endloop
  endfacet
  facet normal 0 -1 -0
    outer loop
      vertex 1.8 -35 2
      vertex -2.8 -35 -2
      vertex 2.8 -35 -2
    endloop
  endfacet
  facet normal 0 1 0
    outer loop
      vertex -3.67382e-015 -30 -2
      vertex 1.8 -30 2
      vertex 2.8 -30 -2
    endloop
  endfacet
  facet normal 0 1 0
    outer loop
      vertex 1.8 -30 2
      vertex -3.67382e-015 -30 -2
      vertex -3.67382e-015 -30 2
    endloop
  endfacet
  facet normal 0.951056 0.309019 0
    outer loop
      vertex -0.809016 -33.0878 0
      vertex -1 -32.5 -2
      vertex -1 -32.5 0
    endloop
  endfacet
  facet normal 0.951056 0.309019 0
    outer loop
      vertex -1 -32.5 -2
      vertex -0.809016 -33.0878 0
      vertex -0.809016 -33.0878 -2
    endloop
  endfacet
  facet normal -0.951056 0.309019 0
    outer loop
      vertex 0.809016 -33.0878 -2
      vertex 1 -32.5 0
      vertex 1 -32.5 -2
    endloop
  endfacet
  facet normal -0.951056 0.309019 0
    outer loop
      vertex 1 -32.5 0
      vertex 0.809016 -33.0878 -2
      vertex 0.809016 -33.0878 0
    endloop
  endfacet
  facet normal 0 -1 0
    outer loop
      vertex -0.309016 -31.5489 -2
      vertex 0.309016 -31.5489 0
      vertex -0.309016 -31.5489 0
    endloop
  endfacet
  facet normal 0 -1 -0
    outer loop
      vertex 0.309016 -31.5489 0
      vertex -0.309016 -31.5489 -2
      vertex 0.309016 -31.5489 -2
    endloop
  endfacet
  facet normal 0 1 -0
    outer loop
      vertex 0.309016 -33.4511 -2
      vertex -0.309016 -33.4511 0
      vertex 0.309016 -33.4511 0
    endloop
  endfacet
  facet normal 0 1 0
    outer loop
      vertex -0.309016 -33.4511 0
      vertex 0.309016 -33.4511 -2
      vertex -0.309016 -33.4511 -2
    endloop
  endfacet
  facet normal 0.587788 0.809015 -0
    outer loop
      vertex -0.309016 -33.4511 -2
      vertex -0.809016 -33.0878 0
      vertex -0.309016 -33.4511 0
    endloop
  endfacet
  facet normal 0.587788 0.809015 0
    outer loop
      vertex -0.809016 -33.0878 0
      vertex -0.309016 -33.4511 -2
      vertex -0.809016 -33.0878 -2
    endloop
  endfacet
  facet normal -0.587788 0.809015 0
    outer loop
      vertex 0.809016 -33.0878 -2
      vertex 0.309016 -33.4511 0
      vertex 0.809016 -33.0878 0
    endloop
  endfacet
  facet normal -0.587788 0.809015 0
    outer loop
      vertex 0.309016 -33.4511 0
      vertex 0.809016 -33.0878 -2
      vertex 0.309016 -33.4511 -2
    endloop
  endfacet
  facet normal -0.951056 -0.309019 0
    outer loop
      vertex 1 -32.5 -2
      vertex 0.809016 -31.9122 0
      vertex 0.809016 -31.9122 -2
    endloop
  endfacet
  facet normal -0.951056 -0.309019 0
    outer loop
      vertex 0.809016 -31.9122 0
      vertex 1 -32.5 -2
      vertex 1 -32.5 0
    endloop
  endfacet
  facet normal 0.587786 -0.809017 0
    outer loop
      vertex -0.809016 -31.9122 -2
      vertex -0.309016 -31.5489 0
      vertex -0.809016 -31.9122 0
    endloop
  endfacet
  facet normal 0.587786 -0.809017 0
    outer loop
      vertex -0.309016 -31.5489 0
      vertex -0.809016 -31.9122 -2
      vertex -0.309016 -31.5489 -2
    endloop
  endfacet
  facet normal -0.587788 -0.809015 0
    outer loop
      vertex 0.309016 -31.5489 -2
      vertex 0.809016 -31.9122 0
      vertex 0.309016 -31.5489 0
    endloop
  endfacet
  facet normal -0.587788 -0.809015 -0
    outer loop
      vertex 0.809016 -31.9122 0
      vertex 0.309016 -31.5489 -2
      vertex 0.809016 -31.9122 -2
    endloop
  endfacet
  facet normal 0.951056 -0.309018 0
    outer loop
      vertex -1 -32.5 0
      vertex -0.809016 -31.9122 -2
      vertex -0.809016 -31.9122 0
    endloop
  endfacet
  facet normal 0.951056 -0.309018 0
    outer loop
      vertex -0.809016 -31.9122 -2
      vertex -1 -32.5 0
      vertex -1 -32.5 -2
    endloop
  endfacet
  facet normal 0.951056 0.309018 0
    outer loop
      vertex -2.02254 -33.9695 1.10983
      vertex -2.02254 -33.9695 0
      vertex -2.3 -33.1155 0
    endloop
  endfacet
  facet normal -0.951056 0.309018 0
    outer loop
      vertex 2.02254 -33.9695 1.10983
      vertex 2.3 -33.1155 0
      vertex 2.02254 -33.9695 0
    endloop
  endfacet
  facet normal -1.23446e-006 -1 0
    outer loop
      vertex -0.772542 -30.1224 0
      vertex 0.772542 -30.1224 2
      vertex -0.772542 -30.1224 2
    endloop
  endfacet
  facet normal -1.23446e-006 -1 -0
    outer loop
      vertex 0.772542 -30.1224 2
      vertex -0.772542 -30.1224 0
      vertex 0.772542 -30.1224 0
    endloop
  endfacet
  facet normal 0 1 -0
    outer loop
      vertex 0.772542 -34.8776 0
      vertex -0.772542 -34.8776 2
      vertex 0.772542 -34.8776 2
    endloop
  endfacet
  facet normal 0 1 0
    outer loop
      vertex -0.772542 -34.8776 2
      vertex 0.772542 -34.8776 0
      vertex -0.772542 -34.8776 0
    endloop
  endfacet
  facet normal 0.587785 0.809017 -5.84282e-007
    outer loop
      vertex -0.772542 -34.8776 2
      vertex -2.02254 -33.9695 1.10983
      vertex -1.8 -34.1311 2
    endloop
  endfacet
  facet normal 0.587785 0.809018 -0
    outer loop
      vertex -0.772542 -34.8776 0
      vertex -2.02254 -33.9695 1.10983
      vertex -0.772542 -34.8776 2
    endloop
  endfacet
  facet normal 0.587785 0.809018 0
    outer loop
      vertex -2.02254 -33.9695 1.10983
      vertex -0.772542 -34.8776 0
      vertex -2.02254 -33.9695 0
    endloop
  endfacet
  facet normal -0.587785 0.809017 -5.84282e-007
    outer loop
      vertex 2.02254 -33.9695 1.10983
      vertex 0.772542 -34.8776 2
      vertex 1.8 -34.1311 2
    endloop
  endfacet
  facet normal -0.587785 0.809018 0
    outer loop
      vertex 0.772542 -34.8776 0
      vertex 2.02254 -33.9695 1.10983
      vertex 2.02254 -33.9695 0
    endloop
  endfacet
  facet normal -0.587785 0.809018 0
    outer loop
      vertex 2.02254 -33.9695 1.10983
      vertex 0.772542 -34.8776 0
      vertex 0.772542 -34.8776 2
    endloop
  endfacet
  facet normal -0.951057 -0.309017 0
    outer loop
      vertex 2.3 -31.8845 0
      vertex 2.02254 -31.0305 1.10983
      vertex 2.02254 -31.0305 0
    endloop
  endfacet
  facet normal 0 0 1
    outer loop
      vertex 0.809016 -31.9122 0
      vertex 2.3 -31.8845 0
      vertex 2.02254 -31.0305 0
    endloop
  endfacet
  facet normal 0 0 1
    outer loop
      vertex 2.3 -31.8845 0
      vertex 1 -32.5 0
      vertex 2.3 -33.1155 0
    endloop
  endfacet
  facet normal -0 0 1
    outer loop
      vertex 0.809016 -33.0878 0
      vertex 2.3 -33.1155 0
      vertex 1 -32.5 0
    endloop
  endfacet
  facet normal 0 0 1
    outer loop
      vertex 2.3 -31.8845 0
      vertex 0.809016 -31.9122 0
      vertex 1 -32.5 0
    endloop
  endfacet
  facet normal 0 0 1
    outer loop
      vertex 0.772542 -30.1224 0
      vertex 0.809016 -31.9122 0
      vertex 2.02254 -31.0305 0
    endloop
  endfacet
  facet normal 0 0 1
    outer loop
      vertex 0.772542 -30.1224 0
      vertex 0.309016 -31.5489 0
      vertex 0.809016 -31.9122 0
    endloop
  endfacet
  facet normal 0 0 1
    outer loop
      vertex 0.772542 -30.1224 0
      vertex -0.309016 -31.5489 0
      vertex 0.309016 -31.5489 0
    endloop
  endfacet
  facet normal 0 0 1
    outer loop
      vertex -0.772542 -30.1224 0
      vertex -0.309016 -31.5489 0
      vertex 0.772542 -30.1224 0
    endloop
  endfacet
  facet normal 0 0 1
    outer loop
      vertex -0.772542 -30.1224 0
      vertex -0.809016 -31.9122 0
      vertex -0.309016 -31.5489 0
    endloop
  endfacet
  facet normal -0 0 1
    outer loop
      vertex -2.02254 -31.0305 0
      vertex -0.809016 -31.9122 0
      vertex -0.772542 -30.1224 0
    endloop
  endfacet
  facet normal -0 0 1
    outer loop
      vertex -2.3 -31.8845 0
      vertex -0.809016 -31.9122 0
      vertex -2.02254 -31.0305 0
    endloop
  endfacet
  facet normal 0 0 1
    outer loop
      vertex 2.3 -33.1155 0
      vertex 0.809016 -33.0878 0
      vertex 2.02254 -33.9695 0
    endloop
  endfacet
  facet normal 0 0 1
    outer loop
      vertex 0.809016 -33.0878 0
      vertex 0.772542 -34.8776 0
      vertex 2.02254 -33.9695 0
    endloop
  endfacet
  facet normal -0 0 1
    outer loop
      vertex 0.309016 -33.4511 0
      vertex 0.772542 -34.8776 0
      vertex 0.809016 -33.0878 0
    endloop
  endfacet
  facet normal -0 0 1
    outer loop
      vertex -0.309016 -33.4511 0
      vertex 0.772542 -34.8776 0
      vertex 0.309016 -33.4511 0
    endloop
  endfacet
  facet normal 0 0 1
    outer loop
      vertex -0.309016 -33.4511 0
      vertex -0.772542 -34.8776 0
      vertex 0.772542 -34.8776 0
    endloop
  endfacet
  facet normal 0 0 1
    outer loop
      vertex -0.809016 -33.0878 0
      vertex -0.772542 -34.8776 0
      vertex -0.309016 -33.4511 0
    endloop
  endfacet
  facet normal 0 0 1
    outer loop
      vertex -2.3 -33.1155 0
      vertex -0.809016 -33.0878 0
      vertex -1 -32.5 0
    endloop
  endfacet
  facet normal 0 0 1
    outer loop
      vertex -0.809016 -31.9122 0
      vertex -2.3 -31.8845 0
      vertex -1 -32.5 0
    endloop
  endfacet
  facet normal 0 0 1
    outer loop
      vertex -2.3 -33.1155 0
      vertex -1 -32.5 0
      vertex -2.3 -31.8845 0
    endloop
  endfacet
  facet normal 0 0 1
    outer loop
      vertex -0.809016 -33.0878 0
      vertex -2.3 -33.1155 0
      vertex -2.02254 -33.9695 0
    endloop
  endfacet
  facet normal 0 0 1
    outer loop
      vertex -0.809016 -33.0878 0
      vertex -2.02254 -33.9695 0
      vertex -0.772542 -34.8776 0
    endloop
  endfacet
  facet normal 0.587786 -0.809017 -9.59742e-007
    outer loop
      vertex -2.02254 -31.0305 1.10983
      vertex -0.772542 -30.1224 2
      vertex -1.8 -30.8689 2
    endloop
  endfacet
  facet normal 0.587785 -0.809017 0
    outer loop
      vertex -0.772542 -30.1224 0
      vertex -2.02254 -31.0305 1.10983
      vertex -2.02254 -31.0305 0
    endloop
  endfacet
  facet normal 0.587785 -0.809017 0
    outer loop
      vertex -2.02254 -31.0305 1.10983
      vertex -0.772542 -30.1224 0
      vertex -0.772542 -30.1224 2
    endloop
  endfacet
  facet normal -0.587785 -0.809017 -5.84282e-007
    outer loop
      vertex 0.772542 -30.1224 2
      vertex 2.02254 -31.0305 1.10983
      vertex 1.8 -30.8689 2
    endloop
  endfacet
  facet normal -0.587785 -0.809018 0
    outer loop
      vertex 0.772542 -30.1224 0
      vertex 2.02254 -31.0305 1.10983
      vertex 0.772542 -30.1224 2
    endloop
  endfacet
  facet normal -0.587785 -0.809018 -0
    outer loop
      vertex 2.02254 -31.0305 1.10983
      vertex 0.772542 -30.1224 0
      vertex 2.02254 -31.0305 0
    endloop
  endfacet
  facet normal 0.951057 -0.309017 0
    outer loop
      vertex -2.02254 -31.0305 0
      vertex -2.02254 -31.0305 1.10983
      vertex -2.3 -31.8845 0
    endloop
  endfacet
endsolid OpenSCAD_Model
