solid OpenSCAD_Model
  facet normal -1 0 0
    outer loop
      vertex -2.3 0 0
      vertex -2.3 0 0.35
      vertex -2.3 20 0
    endloop
  endfacet
  facet normal -1 0 0
    outer loop
      vertex -2.3 20 0
      vertex -2.3 0 0.35
      vertex -2.3 20 0.35
    endloop
  endfacet
  facet normal -0.998027 -0.06279 0
    outer loop
      vertex -2.3 0 0
      vertex -2.28186 -0.288266 0
      vertex -2.3 0 0.35
    endloop
  endfacet
  facet normal -0.998027 -0.06279 0
    outer loop
      vertex -2.3 0 0.35
      vertex -2.28186 -0.288266 0
      vertex -2.28186 -0.288266 0.35
    endloop
  endfacet
  facet normal 0 0 -1
    outer loop
      vertex -2.3 0 0
      vertex -2.3 20 0
      vertex -2.28186 -0.288266 0
    endloop
  endfacet
  facet normal 0 0 -1
    outer loop
      vertex -2.28186 -0.288266 0
      vertex -2.3 20 0
      vertex -2.28186 20.2883 0
    endloop
  endfacet
  facet normal 0 0 -1
    outer loop
      vertex -2.28186 -0.288266 0
      vertex -2.28186 20.2883 0
      vertex -2.22774 20.572 0
    endloop
  endfacet
  facet normal 0 0 -1
    outer loop
      vertex -2.28186 -0.288266 0
      vertex -2.22774 20.572 0
      vertex -2.13849 20.8467 0
    endloop
  endfacet
  facet normal 0 0 -1
    outer loop
      vertex -2.28186 -0.288266 0
      vertex -2.13849 20.8467 0
      vertex -2.01551 21.108 0
    endloop
  endfacet
  facet normal 0 0 -1
    outer loop
      vertex -2.28186 -0.288266 0
      vertex -2.01551 21.108 0
      vertex -1.86074 21.3519 0
    endloop
  endfacet
  facet normal 0 0 -1
    outer loop
      vertex -2.28186 -0.288266 0
      vertex -1.86074 21.3519 0
      vertex -1.67663 21.5745 0
    endloop
  endfacet
  facet normal 0 0 -1
    outer loop
      vertex -2.28186 -0.288266 0
      vertex -1.67663 21.5745 0
      vertex -1.46608 21.7722 0
    endloop
  endfacet
  facet normal 0 0 -1
    outer loop
      vertex -2.28186 -0.288266 0
      vertex -1.46608 21.7722 0
      vertex -1.2324 21.942 0
    endloop
  endfacet
  facet normal 0 0 -1
    outer loop
      vertex -2.28186 -0.288266 0
      vertex -1.2324 21.942 0
      vertex -0.979292 22.0811 0
    endloop
  endfacet
  facet normal 0 0 -1
    outer loop
      vertex -2.28186 -0.288266 0
      vertex -0.979292 22.0811 0
      vertex -0.710739 22.1874 0
    endloop
  endfacet
  facet normal 0 0 -1
    outer loop
      vertex -2.28186 -0.288266 0
      vertex -0.710739 22.1874 0
      vertex -0.430977 22.2593 0
    endloop
  endfacet
  facet normal 0 0 -1
    outer loop
      vertex -2.28186 -0.288266 0
      vertex -0.430977 22.2593 0
      vertex -0.144418 22.2955 0
    endloop
  endfacet
  facet normal 0 0 -1
    outer loop
      vertex -2.28186 -0.288266 0
      vertex -0.144418 22.2955 0
      vertex 14 22.2955 0
    endloop
  endfacet
  facet normal 0 0 -1
    outer loop
      vertex -2.28186 -0.288266 0
      vertex 14 22.2955 0
      vertex 14 16 0
    endloop
  endfacet
  facet normal 0 0 -1
    outer loop
      vertex -2.28186 -0.288266 0
      vertex 14 16 0
      vertex 30 16 0
    endloop
  endfacet
  facet normal 0 0 -1
    outer loop
      vertex 30 16 0
      vertex 30 22.2955 0
      vertex 44.1444 22.2955 0
    endloop
  endfacet
  facet normal 0 0 -1
    outer loop
      vertex 30 16 0
      vertex 44.1444 22.2955 0
      vertex -2.28186 -0.288266 0
    endloop
  endfacet
  facet normal 0 0 -1
    outer loop
      vertex -2.28186 -0.288266 0
      vertex 44.1444 22.2955 0
      vertex 44.431 22.2593 0
    endloop
  endfacet
  facet normal 0 0 -1
    outer loop
      vertex -2.28186 -0.288266 0
      vertex 44.431 22.2593 0
      vertex 44.7107 22.1874 0
    endloop
  endfacet
  facet normal 0 0 -1
    outer loop
      vertex -2.28186 -0.288266 0
      vertex 44.7107 22.1874 0
      vertex 44.9793 22.0811 0
    endloop
  endfacet
  facet normal 0 0 -1
    outer loop
      vertex -2.28186 -0.288266 0
      vertex 44.9793 22.0811 0
      vertex 45.2324 21.942 0
    endloop
  endfacet
  facet normal 0 0 -1
    outer loop
      vertex -2.28186 -0.288266 0
      vertex 45.2324 21.942 0
      vertex 45.4661 21.7722 0
    endloop
  endfacet
  facet normal 0 0 -1
    outer loop
      vertex -2.28186 -0.288266 0
      vertex 45.4661 21.7722 0
      vertex 45.6766 21.5745 0
    endloop
  endfacet
  facet normal 0 0 -1
    outer loop
      vertex -2.28186 -0.288266 0
      vertex 45.6766 21.5745 0
      vertex 45.8607 21.3519 0
    endloop
  endfacet
  facet normal 0 0 -1
    outer loop
      vertex -2.28186 -0.288266 0
      vertex 45.8607 21.3519 0
      vertex 46.0155 21.108 0
    endloop
  endfacet
  facet normal 0 0 -1
    outer loop
      vertex -2.28186 -0.288266 0
      vertex 46.0155 21.108 0
      vertex 46.1385 20.8467 0
    endloop
  endfacet
  facet normal 0 0 -1
    outer loop
      vertex -2.28186 -0.288266 0
      vertex 46.1385 20.8467 0
      vertex 46.2277 20.572 0
    endloop
  endfacet
  facet normal 0 0 -1
    outer loop
      vertex -2.28186 -0.288266 0
      vertex 46.2277 20.572 0
      vertex 46.2819 20.2883 0
    endloop
  endfacet
  facet normal 0 0 -1
    outer loop
      vertex -2.28186 -0.288266 0
      vertex 46.2819 20.2883 0
      vertex 46.3 20 0
    endloop
  endfacet
  facet normal 0 0 -1
    outer loop
      vertex -2.28186 -0.288266 0
      vertex 46.3 20 0
      vertex 46.3 0 0
    endloop
  endfacet
  facet normal 0 0 -1
    outer loop
      vertex -2.28186 -0.288266 0
      vertex 46.3 0 0
      vertex 46.2819 -0.288266 0
    endloop
  endfacet
  facet normal 0 0 -1
    outer loop
      vertex -2.28186 -0.288266 0
      vertex 46.2819 -0.288266 0
      vertex 46.2277 -0.571987 0
    endloop
  endfacet
  facet normal 0 0 -1
    outer loop
      vertex -2.28186 -0.288266 0
      vertex 46.2277 -0.571987 0
      vertex 46.1385 -0.846686 0
    endloop
  endfacet
  facet normal 0 0 -1
    outer loop
      vertex -2.28186 -0.288266 0
      vertex 46.1385 -0.846686 0
      vertex 46.0155 -1.10803 0
    endloop
  endfacet
  facet normal 0 0 -1
    outer loop
      vertex -2.28186 -0.288266 0
      vertex 46.0155 -1.10803 0
      vertex 45.8607 -1.35191 0
    endloop
  endfacet
  facet normal 0 0 -1
    outer loop
      vertex -2.28186 -0.288266 0
      vertex 45.8607 -1.35191 0
      vertex 45.6766 -1.57446 0
    endloop
  endfacet
  facet normal 0 0 -1
    outer loop
      vertex -2.28186 -0.288266 0
      vertex 45.6766 -1.57446 0
      vertex 45.4661 -1.77218 0
    endloop
  endfacet
  facet normal 0 0 -1
    outer loop
      vertex -2.28186 -0.288266 0
      vertex 45.4661 -1.77218 0
      vertex 45.2324 -1.94195 0
    endloop
  endfacet
  facet normal 0 0 -1
    outer loop
      vertex -2.28186 -0.288266 0
      vertex 45.2324 -1.94195 0
      vertex 44.9793 -2.0811 0
    endloop
  endfacet
  facet normal 0 0 -1
    outer loop
      vertex -2.28186 -0.288266 0
      vertex 44.9793 -2.0811 0
      vertex 44.7107 -2.18743 0
    endloop
  endfacet
  facet normal 0 0 -1
    outer loop
      vertex -2.28186 -0.288266 0
      vertex 44.7107 -2.18743 0
      vertex 44.431 -2.25926 0
    endloop
  endfacet
  facet normal 0 0 -1
    outer loop
      vertex -2.28186 -0.288266 0
      vertex 44.431 -2.25926 0
      vertex 44.1444 -2.29546 0
    endloop
  endfacet
  facet normal 0 0 -1
    outer loop
      vertex -2.28186 -0.288266 0
      vertex 44.1444 -2.29546 0
      vertex -0.144418 -2.29546 0
    endloop
  endfacet
  facet normal 0 0 -1
    outer loop
      vertex -2.28186 -0.288266 0
      vertex -0.144418 -2.29546 0
      vertex -0.430977 -2.25926 0
    endloop
  endfacet
  facet normal 0 0 -1
    outer loop
      vertex -2.28186 -0.288266 0
      vertex -0.430977 -2.25926 0
      vertex -0.710739 -2.18743 0
    endloop
  endfacet
  facet normal 0 0 -1
    outer loop
      vertex -2.28186 -0.288266 0
      vertex -0.710739 -2.18743 0
      vertex -0.979292 -2.0811 0
    endloop
  endfacet
  facet normal 0 0 -1
    outer loop
      vertex -2.28186 -0.288266 0
      vertex -0.979292 -2.0811 0
      vertex -1.2324 -1.94195 0
    endloop
  endfacet
  facet normal 0 0 -1
    outer loop
      vertex -2.28186 -0.288266 0
      vertex -1.2324 -1.94195 0
      vertex -1.46608 -1.77218 0
    endloop
  endfacet
  facet normal 0 0 -1
    outer loop
      vertex -2.28186 -0.288266 0
      vertex -1.46608 -1.77218 0
      vertex -1.67663 -1.57446 0
    endloop
  endfacet
  facet normal 0 0 -1
    outer loop
      vertex -2.28186 -0.288266 0
      vertex -1.67663 -1.57446 0
      vertex -1.86074 -1.35191 0
    endloop
  endfacet
  facet normal 0 0 -1
    outer loop
      vertex -2.28186 -0.288266 0
      vertex -1.86074 -1.35191 0
      vertex -2.01551 -1.10803 0
    endloop
  endfacet
  facet normal 0 0 -1
    outer loop
      vertex -2.28186 -0.288266 0
      vertex -2.01551 -1.10803 0
      vertex -2.13849 -0.846686 0
    endloop
  endfacet
  facet normal 0 0 -1
    outer loop
      vertex -2.28186 -0.288266 0
      vertex -2.13849 -0.846686 0
      vertex -2.22774 -0.571987 0
    endloop
  endfacet
  facet normal -0.998027 0.06279 0
    outer loop
      vertex -2.3 20 0
      vertex -2.3 20 0.35
      vertex -2.28186 20.2883 0
    endloop
  endfacet
  facet normal -0.998027 0.06279 0
    outer loop
      vertex -2.28186 20.2883 0
      vertex -2.3 20 0.35
      vertex -2.28186 20.2883 0.35
    endloop
  endfacet
  facet normal 0 0 1
    outer loop
      vertex -2.3 20 0.35
      vertex -2.3 0 0.35
      vertex -2.28186 -0.288266 0.35
    endloop
  endfacet
  facet normal 0 0 1
    outer loop
      vertex -2.13849 -0.846686 0.35
      vertex -2.3 20 0.35
      vertex -2.22774 -0.571987 0.35
    endloop
  endfacet
  facet normal 0 0 1
    outer loop
      vertex -2.22774 -0.571987 0.35
      vertex -2.3 20 0.35
      vertex -2.28186 -0.288266 0.35
    endloop
  endfacet
  facet normal 0 0 1
    outer loop
      vertex -2.01551 -1.10803 0.35
      vertex -2.3 20 0.35
      vertex -2.13849 -0.846686 0.35
    endloop
  endfacet
  facet normal 0 0 1
    outer loop
      vertex -1.86074 -1.35191 0.35
      vertex -2.3 20 0.35
      vertex -2.01551 -1.10803 0.35
    endloop
  endfacet
  facet normal 0 0 1
    outer loop
      vertex -1.67663 -1.57446 0.35
      vertex -2.3 20 0.35
      vertex -1.86074 -1.35191 0.35
    endloop
  endfacet
  facet normal 0 0 1
    outer loop
      vertex -1.46608 -1.77218 0.35
      vertex -2.3 20 0.35
      vertex -1.67663 -1.57446 0.35
    endloop
  endfacet
  facet normal 0 0 1
    outer loop
      vertex -1.2324 -1.94195 0.35
      vertex -2.3 20 0.35
      vertex -1.46608 -1.77218 0.35
    endloop
  endfacet
  facet normal 0 0 1
    outer loop
      vertex -0.979292 -2.0811 0.35
      vertex -2.3 20 0.35
      vertex -1.2324 -1.94195 0.35
    endloop
  endfacet
  facet normal 0 0 1
    outer loop
      vertex -0.710739 -2.18743 0.35
      vertex -2.3 20 0.35
      vertex -0.979292 -2.0811 0.35
    endloop
  endfacet
  facet normal 0 0 1
    outer loop
      vertex -0.430977 -2.25926 0.35
      vertex -2.3 20 0.35
      vertex -0.710739 -2.18743 0.35
    endloop
  endfacet
  facet normal 0 0 1
    outer loop
      vertex -0.144418 -2.29546 0.35
      vertex -2.3 20 0.35
      vertex -0.430977 -2.25926 0.35
    endloop
  endfacet
  facet normal 0 0 1
    outer loop
      vertex 0 0 0.35
      vertex -2.3 20 0.35
      vertex -0.144418 -2.29546 0.35
    endloop
  endfacet
  facet normal 0 0 1
    outer loop
      vertex 0 0 0.35
      vertex 0 20 0.35
      vertex -2.3 20 0.35
    endloop
  endfacet
  facet normal 0 0 1
    outer loop
      vertex 14 20 0.35
      vertex 14 22.2955 0.35
      vertex 0 20 0.35
    endloop
  endfacet
  facet normal 0 0 1
    outer loop
      vertex 44 0 0.35
      vertex 45.8607 -1.35191 0.35
      vertex 46.0155 -1.10803 0.35
    endloop
  endfacet
  facet normal 0 0 1
    outer loop
      vertex 44 0 0.35
      vertex 45.6766 -1.57446 0.35
      vertex 45.8607 -1.35191 0.35
    endloop
  endfacet
  facet normal 0 0 1
    outer loop
      vertex 44 0 0.35
      vertex 45.4661 -1.77218 0.35
      vertex 45.6766 -1.57446 0.35
    endloop
  endfacet
  facet normal 0 0 1
    outer loop
      vertex 46.3 20 0.35
      vertex 44 20 0.35
      vertex 46.3 0 0.35
    endloop
  endfacet
  facet normal 0 0 1
    outer loop
      vertex 44 0 0.35
      vertex 44.7107 -2.18743 0.35
      vertex 44.9793 -2.0811 0.35
    endloop
  endfacet
  facet normal 0 0 1
    outer loop
      vertex 44 20 0.35
      vertex 46.2819 -0.288266 0.35
      vertex 46.3 0 0.35
    endloop
  endfacet
  facet normal 0 0 1
    outer loop
      vertex 44 20 0.35
      vertex 46.2277 -0.571987 0.35
      vertex 46.2819 -0.288266 0.35
    endloop
  endfacet
  facet normal 0 0 1
    outer loop
      vertex 44 20 0.35
      vertex 46.1385 -0.846686 0.35
      vertex 46.2277 -0.571987 0.35
    endloop
  endfacet
  facet normal 0 0 1
    outer loop
      vertex 44 20 0.35
      vertex 44 0 0.35
      vertex 46.1385 -0.846686 0.35
    endloop
  endfacet
  facet normal 0 0 1
    outer loop
      vertex 44 0 0.35
      vertex 44.1444 -2.29546 0.35
      vertex 44.431 -2.25926 0.35
    endloop
  endfacet
  facet normal 0 0 1
    outer loop
      vertex 44 0 0.35
      vertex 0 0 0.35
      vertex 44.1444 -2.29546 0.35
    endloop
  endfacet
  facet normal 0 0 1
    outer loop
      vertex 44 0 0.35
      vertex 44.431 -2.25926 0.35
      vertex 44.7107 -2.18743 0.35
    endloop
  endfacet
  facet normal 0 0 1
    outer loop
      vertex 44 0 0.35
      vertex 45.2324 -1.94195 0.35
      vertex 45.4661 -1.77218 0.35
    endloop
  endfacet
  facet normal 0 0 1
    outer loop
      vertex 46.2819 20.2883 0.35
      vertex 44 20 0.35
      vertex 46.3 20 0.35
    endloop
  endfacet
  facet normal 0 0 1
    outer loop
      vertex 46.2819 20.2883 0.35
      vertex 30 20 0.35
      vertex 44 20 0.35
    endloop
  endfacet
  facet normal 0 0 1
    outer loop
      vertex 46.1385 -0.846686 0.35
      vertex 44 0 0.35
      vertex 46.0155 -1.10803 0.35
    endloop
  endfacet
  facet normal 0 0 1
    outer loop
      vertex 0 20 0.35
      vertex 14 22.2955 0.35
      vertex -2.3 20 0.35
    endloop
  endfacet
  facet normal 0 0 1
    outer loop
      vertex 44.1444 -2.29546 0.35
      vertex 0 0 0.35
      vertex -0.144418 -2.29546 0.35
    endloop
  endfacet
  facet normal 0 0 1
    outer loop
      vertex 44 0 0.35
      vertex 44.9793 -2.0811 0.35
      vertex 45.2324 -1.94195 0.35
    endloop
  endfacet
  facet normal 0 0 1
    outer loop
      vertex -0.144418 22.2955 0.35
      vertex -2.3 20 0.35
      vertex 14 22.2955 0.35
    endloop
  endfacet
  facet normal 0 0 1
    outer loop
      vertex -0.430977 22.2593 0.35
      vertex -2.3 20 0.35
      vertex -0.144418 22.2955 0.35
    endloop
  endfacet
  facet normal 0 0 1
    outer loop
      vertex -0.710739 22.1874 0.35
      vertex -2.3 20 0.35
      vertex -0.430977 22.2593 0.35
    endloop
  endfacet
  facet normal 0 0 1
    outer loop
      vertex -0.979292 22.0811 0.35
      vertex -2.3 20 0.35
      vertex -0.710739 22.1874 0.35
    endloop
  endfacet
  facet normal 0 0 1
    outer loop
      vertex -1.2324 21.942 0.35
      vertex -2.3 20 0.35
      vertex -0.979292 22.0811 0.35
    endloop
  endfacet
  facet normal 0 0 1
    outer loop
      vertex -1.46608 21.7722 0.35
      vertex -2.3 20 0.35
      vertex -1.2324 21.942 0.35
    endloop
  endfacet
  facet normal 0 0 1
    outer loop
      vertex -1.67663 21.5745 0.35
      vertex -2.3 20 0.35
      vertex -1.46608 21.7722 0.35
    endloop
  endfacet
  facet normal 0 0 1
    outer loop
      vertex -1.86074 21.3519 0.35
      vertex -2.3 20 0.35
      vertex -1.67663 21.5745 0.35
    endloop
  endfacet
  facet normal 0 0 1
    outer loop
      vertex -2.01551 21.108 0.35
      vertex -2.3 20 0.35
      vertex -1.86074 21.3519 0.35
    endloop
  endfacet
  facet normal 0 0 1
    outer loop
      vertex -2.13849 20.8467 0.35
      vertex -2.3 20 0.35
      vertex -2.01551 21.108 0.35
    endloop
  endfacet
  facet normal 0 0 1
    outer loop
      vertex -2.22774 20.572 0.35
      vertex -2.3 20 0.35
      vertex -2.13849 20.8467 0.35
    endloop
  endfacet
  facet normal 0 0 1
    outer loop
      vertex -2.28186 20.2883 0.35
      vertex -2.3 20 0.35
      vertex -2.22774 20.572 0.35
    endloop
  endfacet
  facet normal 0 0 1
    outer loop
      vertex 30 22.2955 0.35
      vertex 44.431 22.2593 0.35
      vertex 44.1444 22.2955 0.35
    endloop
  endfacet
  facet normal 0 0 1
    outer loop
      vertex 30 22.2955 0.35
      vertex 44.7107 22.1874 0.35
      vertex 44.431 22.2593 0.35
    endloop
  endfacet
  facet normal 0 0 1
    outer loop
      vertex 30 22.2955 0.35
      vertex 44.9793 22.0811 0.35
      vertex 44.7107 22.1874 0.35
    endloop
  endfacet
  facet normal 0 0 1
    outer loop
      vertex 30 22.2955 0.35
      vertex 45.2324 21.942 0.35
      vertex 44.9793 22.0811 0.35
    endloop
  endfacet
  facet normal 0 0 1
    outer loop
      vertex 30 22.2955 0.35
      vertex 45.4661 21.7722 0.35
      vertex 45.2324 21.942 0.35
    endloop
  endfacet
  facet normal 0 0 1
    outer loop
      vertex 30 22.2955 0.35
      vertex 45.6766 21.5745 0.35
      vertex 45.4661 21.7722 0.35
    endloop
  endfacet
  facet normal 0 0 1
    outer loop
      vertex 30 22.2955 0.35
      vertex 45.8607 21.3519 0.35
      vertex 45.6766 21.5745 0.35
    endloop
  endfacet
  facet normal 0 0 1
    outer loop
      vertex 30 22.2955 0.35
      vertex 46.0155 21.108 0.35
      vertex 45.8607 21.3519 0.35
    endloop
  endfacet
  facet normal 0 0 1
    outer loop
      vertex 30 22.2955 0.35
      vertex 46.1385 20.8467 0.35
      vertex 46.0155 21.108 0.35
    endloop
  endfacet
  facet normal 0 0 1
    outer loop
      vertex 30 22.2955 0.35
      vertex 46.2277 20.572 0.35
      vertex 46.1385 20.8467 0.35
    endloop
  endfacet
  facet normal 0 0 1
    outer loop
      vertex 30 22.2955 0.35
      vertex 46.2819 20.2883 0.35
      vertex 46.2277 20.572 0.35
    endloop
  endfacet
  facet normal 0 0 1
    outer loop
      vertex 30 22.2955 0.35
      vertex 30 20 0.35
      vertex 46.2819 20.2883 0.35
    endloop
  endfacet
  facet normal -0.982287 -0.187382 0
    outer loop
      vertex -2.28186 -0.288266 0
      vertex -2.22774 -0.571987 0
      vertex -2.28186 -0.288266 0.35
    endloop
  endfacet
  facet normal -0.982287 -0.187382 0
    outer loop
      vertex -2.28186 -0.288266 0.35
      vertex -2.22774 -0.571987 0
      vertex -2.22774 -0.571987 0.35
    endloop
  endfacet
  facet normal -0.951057 -0.309017 0
    outer loop
      vertex -2.22774 -0.571987 0
      vertex -2.13849 -0.846686 0
      vertex -2.22774 -0.571987 0.35
    endloop
  endfacet
  facet normal -0.951057 -0.309017 0
    outer loop
      vertex -2.22774 -0.571987 0.35
      vertex -2.13849 -0.846686 0
      vertex -2.13849 -0.846686 0.35
    endloop
  endfacet
  facet normal -0.904826 -0.425781 0
    outer loop
      vertex -2.13849 -0.846686 0
      vertex -2.01551 -1.10803 0
      vertex -2.13849 -0.846686 0.35
    endloop
  endfacet
  facet normal -0.904826 -0.425781 0
    outer loop
      vertex -2.13849 -0.846686 0.35
      vertex -2.01551 -1.10803 0
      vertex -2.01551 -1.10803 0.35
    endloop
  endfacet
  facet normal -0.844329 -0.535826 0
    outer loop
      vertex -2.01551 -1.10803 0
      vertex -1.86074 -1.35191 0
      vertex -2.01551 -1.10803 0.35
    endloop
  endfacet
  facet normal -0.844329 -0.535826 0
    outer loop
      vertex -2.01551 -1.10803 0.35
      vertex -1.86074 -1.35191 0
      vertex -1.86074 -1.35191 0.35
    endloop
  endfacet
  facet normal -0.770513 -0.637424 0
    outer loop
      vertex -1.86074 -1.35191 0
      vertex -1.67663 -1.57446 0
      vertex -1.86074 -1.35191 0.35
    endloop
  endfacet
  facet normal -0.770513 -0.637424 0
    outer loop
      vertex -1.86074 -1.35191 0.35
      vertex -1.67663 -1.57446 0
      vertex -1.67663 -1.57446 0.35
    endloop
  endfacet
  facet normal -0.684546 -0.728969 0
    outer loop
      vertex -1.67663 -1.57446 0.35
      vertex -1.67663 -1.57446 0
      vertex -1.46608 -1.77218 0
    endloop
  endfacet
  facet normal -0.684546 -0.728969 0
    outer loop
      vertex -1.46608 -1.77218 0.35
      vertex -1.67663 -1.57446 0.35
      vertex -1.46608 -1.77218 0
    endloop
  endfacet
  facet normal -0.587787 -0.809016 0
    outer loop
      vertex -1.46608 -1.77218 0.35
      vertex -1.46608 -1.77218 0
      vertex -1.2324 -1.94195 0
    endloop
  endfacet
  facet normal -0.587787 -0.809016 0
    outer loop
      vertex -1.2324 -1.94195 0.35
      vertex -1.46608 -1.77218 0.35
      vertex -1.2324 -1.94195 0
    endloop
  endfacet
  facet normal -0.481753 -0.876307 0
    outer loop
      vertex -1.2324 -1.94195 0.35
      vertex -1.2324 -1.94195 0
      vertex -0.979292 -2.0811 0
    endloop
  endfacet
  facet normal -0.481753 -0.876307 0
    outer loop
      vertex -0.979292 -2.0811 0.35
      vertex -1.2324 -1.94195 0.35
      vertex -0.979292 -2.0811 0
    endloop
  endfacet
  facet normal -0.368126 -0.929776 0
    outer loop
      vertex -0.979292 -2.0811 0.35
      vertex -0.979292 -2.0811 0
      vertex -0.710739 -2.18743 0
    endloop
  endfacet
  facet normal -0.368126 -0.929776 0
    outer loop
      vertex -0.710739 -2.18743 0.35
      vertex -0.979292 -2.0811 0.35
      vertex -0.710739 -2.18743 0
    endloop
  endfacet
  facet normal -0.248691 -0.968583 0
    outer loop
      vertex -0.710739 -2.18743 0.35
      vertex -0.710739 -2.18743 0
      vertex -0.430977 -2.25926 0
    endloop
  endfacet
  facet normal -0.248691 -0.968583 0
    outer loop
      vertex -0.430977 -2.25926 0.35
      vertex -0.710739 -2.18743 0.35
      vertex -0.430977 -2.25926 0
    endloop
  endfacet
  facet normal -0.12533 -0.992115 0
    outer loop
      vertex -0.430977 -2.25926 0.35
      vertex -0.430977 -2.25926 0
      vertex -0.144418 -2.29546 0
    endloop
  endfacet
  facet normal -0.12533 -0.992115 0
    outer loop
      vertex -0.144418 -2.29546 0.35
      vertex -0.430977 -2.25926 0.35
      vertex -0.144418 -2.29546 0
    endloop
  endfacet
  facet normal 0 -1 0
    outer loop
      vertex -0.144418 -2.29546 0.35
      vertex -0.144418 -2.29546 0
      vertex 44.1444 -2.29546 0
    endloop
  endfacet
  facet normal 0 -1 0
    outer loop
      vertex 44.1444 -2.29546 0.35
      vertex -0.144418 -2.29546 0.35
      vertex 44.1444 -2.29546 0
    endloop
  endfacet
  facet normal 0.12533 -0.992115 0
    outer loop
      vertex 44.1444 -2.29546 0.35
      vertex 44.1444 -2.29546 0
      vertex 44.431 -2.25926 0
    endloop
  endfacet
  facet normal 0.12533 -0.992115 0
    outer loop
      vertex 44.431 -2.25926 0.35
      vertex 44.1444 -2.29546 0.35
      vertex 44.431 -2.25926 0
    endloop
  endfacet
  facet normal 0.248691 -0.968583 0
    outer loop
      vertex 44.431 -2.25926 0.35
      vertex 44.431 -2.25926 0
      vertex 44.7107 -2.18743 0
    endloop
  endfacet
  facet normal 0.248691 -0.968583 0
    outer loop
      vertex 44.7107 -2.18743 0.35
      vertex 44.431 -2.25926 0.35
      vertex 44.7107 -2.18743 0
    endloop
  endfacet
  facet normal 0.368126 -0.929776 0
    outer loop
      vertex 44.7107 -2.18743 0.35
      vertex 44.7107 -2.18743 0
      vertex 44.9793 -2.0811 0
    endloop
  endfacet
  facet normal 0.368126 -0.929776 0
    outer loop
      vertex 44.9793 -2.0811 0.35
      vertex 44.7107 -2.18743 0.35
      vertex 44.9793 -2.0811 0
    endloop
  endfacet
  facet normal 0.481753 -0.876307 0
    outer loop
      vertex 44.9793 -2.0811 0.35
      vertex 44.9793 -2.0811 0
      vertex 45.2324 -1.94195 0
    endloop
  endfacet
  facet normal 0.481753 -0.876307 0
    outer loop
      vertex 45.2324 -1.94195 0.35
      vertex 44.9793 -2.0811 0.35
      vertex 45.2324 -1.94195 0
    endloop
  endfacet
  facet normal 0.587787 -0.809016 0
    outer loop
      vertex 45.2324 -1.94195 0.35
      vertex 45.2324 -1.94195 0
      vertex 45.4661 -1.77218 0
    endloop
  endfacet
  facet normal 0.587787 -0.809016 0
    outer loop
      vertex 45.4661 -1.77218 0.35
      vertex 45.2324 -1.94195 0.35
      vertex 45.4661 -1.77218 0
    endloop
  endfacet
  facet normal 0.684546 -0.728969 0
    outer loop
      vertex 45.4661 -1.77218 0.35
      vertex 45.4661 -1.77218 0
      vertex 45.6766 -1.57446 0
    endloop
  endfacet
  facet normal 0.684546 -0.728969 0
    outer loop
      vertex 45.6766 -1.57446 0.35
      vertex 45.4661 -1.77218 0.35
      vertex 45.6766 -1.57446 0
    endloop
  endfacet
  facet normal 0.770513 -0.637424 0
    outer loop
      vertex 45.6766 -1.57446 0.35
      vertex 45.6766 -1.57446 0
      vertex 45.8607 -1.35191 0
    endloop
  endfacet
  facet normal 0.770513 -0.637424 0
    outer loop
      vertex 45.8607 -1.35191 0.35
      vertex 45.6766 -1.57446 0.35
      vertex 45.8607 -1.35191 0
    endloop
  endfacet
  facet normal 0.844329 -0.535826 0
    outer loop
      vertex 45.8607 -1.35191 0.35
      vertex 45.8607 -1.35191 0
      vertex 46.0155 -1.10803 0
    endloop
  endfacet
  facet normal 0.844329 -0.535826 0
    outer loop
      vertex 46.0155 -1.10803 0.35
      vertex 45.8607 -1.35191 0.35
      vertex 46.0155 -1.10803 0
    endloop
  endfacet
  facet normal 0.904826 -0.425781 0
    outer loop
      vertex 46.0155 -1.10803 0.35
      vertex 46.0155 -1.10803 0
      vertex 46.1385 -0.846686 0
    endloop
  endfacet
  facet normal 0.904826 -0.425781 0
    outer loop
      vertex 46.1385 -0.846686 0.35
      vertex 46.0155 -1.10803 0.35
      vertex 46.1385 -0.846686 0
    endloop
  endfacet
  facet normal 0.951057 -0.309017 0
    outer loop
      vertex 46.1385 -0.846686 0.35
      vertex 46.1385 -0.846686 0
      vertex 46.2277 -0.571987 0
    endloop
  endfacet
  facet normal 0.951057 -0.309017 0
    outer loop
      vertex 46.2277 -0.571987 0.35
      vertex 46.1385 -0.846686 0.35
      vertex 46.2277 -0.571987 0
    endloop
  endfacet
  facet normal 0.982287 -0.187382 0
    outer loop
      vertex 46.2277 -0.571987 0.35
      vertex 46.2277 -0.571987 0
      vertex 46.2819 -0.288266 0
    endloop
  endfacet
  facet normal 0.982287 -0.187382 0
    outer loop
      vertex 46.2819 -0.288266 0.35
      vertex 46.2277 -0.571987 0.35
      vertex 46.2819 -0.288266 0
    endloop
  endfacet
  facet normal 0.998027 -0.06279 0
    outer loop
      vertex 46.2819 -0.288266 0.35
      vertex 46.2819 -0.288266 0
      vertex 46.3 0 0
    endloop
  endfacet
  facet normal 0.998027 -0.06279 0
    outer loop
      vertex 46.3 0 0.35
      vertex 46.2819 -0.288266 0.35
      vertex 46.3 0 0
    endloop
  endfacet
  facet normal 1 0 0
    outer loop
      vertex 46.3 0 0.35
      vertex 46.3 0 0
      vertex 46.3 20 0
    endloop
  endfacet
  facet normal 1 0 0
    outer loop
      vertex 46.3 20 0.35
      vertex 46.3 0 0.35
      vertex 46.3 20 0
    endloop
  endfacet
  facet normal 0.998027 0.06279 0
    outer loop
      vertex 46.3 20 0
      vertex 46.2819 20.2883 0
      vertex 46.2819 20.2883 0.35
    endloop
  endfacet
  facet normal 0.998027 0.06279 0
    outer loop
      vertex 46.3 20 0.35
      vertex 46.3 20 0
      vertex 46.2819 20.2883 0.35
    endloop
  endfacet
  facet normal 0.982287 0.187382 0
    outer loop
      vertex 46.2819 20.2883 0
      vertex 46.2277 20.572 0
      vertex 46.2277 20.572 0.35
    endloop
  endfacet
  facet normal 0.982287 0.187382 0
    outer loop
      vertex 46.2819 20.2883 0.35
      vertex 46.2819 20.2883 0
      vertex 46.2277 20.572 0.35
    endloop
  endfacet
  facet normal 0.951057 0.309017 0
    outer loop
      vertex 46.2277 20.572 0
      vertex 46.1385 20.8467 0
      vertex 46.1385 20.8467 0.35
    endloop
  endfacet
  facet normal 0.951057 0.309017 0
    outer loop
      vertex 46.2277 20.572 0.35
      vertex 46.2277 20.572 0
      vertex 46.1385 20.8467 0.35
    endloop
  endfacet
  facet normal 0.904826 0.425781 0
    outer loop
      vertex 46.1385 20.8467 0
      vertex 46.0155 21.108 0
      vertex 46.0155 21.108 0.35
    endloop
  endfacet
  facet normal 0.904826 0.425781 0
    outer loop
      vertex 46.1385 20.8467 0.35
      vertex 46.1385 20.8467 0
      vertex 46.0155 21.108 0.35
    endloop
  endfacet
  facet normal 0.844329 0.535826 0
    outer loop
      vertex 46.0155 21.108 0
      vertex 45.8607 21.3519 0
      vertex 45.8607 21.3519 0.35
    endloop
  endfacet
  facet normal 0.844329 0.535826 0
    outer loop
      vertex 46.0155 21.108 0.35
      vertex 46.0155 21.108 0
      vertex 45.8607 21.3519 0.35
    endloop
  endfacet
  facet normal 0.770513 0.637424 0
    outer loop
      vertex 45.8607 21.3519 0
      vertex 45.6766 21.5745 0
      vertex 45.6766 21.5745 0.35
    endloop
  endfacet
  facet normal 0.770513 0.637424 0
    outer loop
      vertex 45.8607 21.3519 0.35
      vertex 45.8607 21.3519 0
      vertex 45.6766 21.5745 0.35
    endloop
  endfacet
  facet normal 0.684546 0.728969 0
    outer loop
      vertex 45.4661 21.7722 0
      vertex 45.4661 21.7722 0.35
      vertex 45.6766 21.5745 0
    endloop
  endfacet
  facet normal 0.684546 0.728969 0
    outer loop
      vertex 45.6766 21.5745 0
      vertex 45.4661 21.7722 0.35
      vertex 45.6766 21.5745 0.35
    endloop
  endfacet
  facet normal 0.587787 0.809016 0
    outer loop
      vertex 45.2324 21.942 0
      vertex 45.2324 21.942 0.35
      vertex 45.4661 21.7722 0
    endloop
  endfacet
  facet normal 0.587787 0.809016 0
    outer loop
      vertex 45.4661 21.7722 0
      vertex 45.2324 21.942 0.35
      vertex 45.4661 21.7722 0.35
    endloop
  endfacet
  facet normal 0.481753 0.876307 0
    outer loop
      vertex 44.9793 22.0811 0
      vertex 44.9793 22.0811 0.35
      vertex 45.2324 21.942 0
    endloop
  endfacet
  facet normal 0.481753 0.876307 0
    outer loop
      vertex 45.2324 21.942 0
      vertex 44.9793 22.0811 0.35
      vertex 45.2324 21.942 0.35
    endloop
  endfacet
  facet normal 0.368126 0.929776 0
    outer loop
      vertex 44.7107 22.1874 0
      vertex 44.7107 22.1874 0.35
      vertex 44.9793 22.0811 0
    endloop
  endfacet
  facet normal 0.368126 0.929776 0
    outer loop
      vertex 44.9793 22.0811 0
      vertex 44.7107 22.1874 0.35
      vertex 44.9793 22.0811 0.35
    endloop
  endfacet
  facet normal 0.248691 0.968583 0
    outer loop
      vertex 44.431 22.2593 0
      vertex 44.431 22.2593 0.35
      vertex 44.7107 22.1874 0
    endloop
  endfacet
  facet normal 0.248691 0.968583 0
    outer loop
      vertex 44.7107 22.1874 0
      vertex 44.431 22.2593 0.35
      vertex 44.7107 22.1874 0.35
    endloop
  endfacet
  facet normal 0.12533 0.992115 0
    outer loop
      vertex 44.1444 22.2955 0
      vertex 44.1444 22.2955 0.35
      vertex 44.431 22.2593 0
    endloop
  endfacet
  facet normal 0.12533 0.992115 0
    outer loop
      vertex 44.431 22.2593 0
      vertex 44.1444 22.2955 0.35
      vertex 44.431 22.2593 0.35
    endloop
  endfacet
  facet normal 0 1 0
    outer loop
      vertex 30 22.2955 0
      vertex 30 22.2955 0.35
      vertex 44.1444 22.2955 0
    endloop
  endfacet
  facet normal 0 1 0
    outer loop
      vertex 44.1444 22.2955 0
      vertex 30 22.2955 0.35
      vertex 44.1444 22.2955 0.35
    endloop
  endfacet
  facet normal -1 0 0
    outer loop
      vertex 30 20 1.4
      vertex 30 20 0.35
      vertex 30 16 1.4
    endloop
  endfacet
  facet normal -1 0 0
    outer loop
      vertex 30 22.2955 0
      vertex 30 20 0.35
      vertex 30 22.2955 0.35
    endloop
  endfacet
  facet normal -1 0 0
    outer loop
      vertex 30 16 0
      vertex 30 20 0.35
      vertex 30 22.2955 0
    endloop
  endfacet
  facet normal -1 0 0
    outer loop
      vertex 30 16 1.4
      vertex 30 20 0.35
      vertex 30 16 0
    endloop
  endfacet
  facet normal 0 1 0
    outer loop
      vertex 30 16 1.4
      vertex 30 16 0
      vertex 14 16 1.4
    endloop
  endfacet
  facet normal 0 1 0
    outer loop
      vertex 14 16 1.4
      vertex 30 16 0
      vertex 14 16 0
    endloop
  endfacet
  facet normal 1 0 0
    outer loop
      vertex 14 22.2955 0
      vertex 14 22.2955 0.35
      vertex 14 20 0.35
    endloop
  endfacet
  facet normal 1 0 0
    outer loop
      vertex 14 16 0
      vertex 14 22.2955 0
      vertex 14 20 0.35
    endloop
  endfacet
  facet normal 1 0 0
    outer loop
      vertex 14 20 1.4
      vertex 14 16 1.4
      vertex 14 20 0.35
    endloop
  endfacet
  facet normal 1 0 0
    outer loop
      vertex 14 16 1.4
      vertex 14 16 0
      vertex 14 20 0.35
    endloop
  endfacet
  facet normal 0 1 0
    outer loop
      vertex -0.144418 22.2955 0
      vertex -0.144418 22.2955 0.35
      vertex 14 22.2955 0
    endloop
  endfacet
  facet normal 0 1 0
    outer loop
      vertex 14 22.2955 0
      vertex -0.144418 22.2955 0.35
      vertex 14 22.2955 0.35
    endloop
  endfacet
  facet normal -0.12533 0.992115 0
    outer loop
      vertex -0.430977 22.2593 0
      vertex -0.430977 22.2593 0.35
      vertex -0.144418 22.2955 0
    endloop
  endfacet
  facet normal -0.12533 0.992115 0
    outer loop
      vertex -0.144418 22.2955 0
      vertex -0.430977 22.2593 0.35
      vertex -0.144418 22.2955 0.35
    endloop
  endfacet
  facet normal -0.248691 0.968583 0
    outer loop
      vertex -0.710739 22.1874 0
      vertex -0.710739 22.1874 0.35
      vertex -0.430977 22.2593 0
    endloop
  endfacet
  facet normal -0.248691 0.968583 0
    outer loop
      vertex -0.430977 22.2593 0
      vertex -0.710739 22.1874 0.35
      vertex -0.430977 22.2593 0.35
    endloop
  endfacet
  facet normal -0.368126 0.929776 0
    outer loop
      vertex -0.979292 22.0811 0
      vertex -0.979292 22.0811 0.35
      vertex -0.710739 22.1874 0
    endloop
  endfacet
  facet normal -0.368126 0.929776 0
    outer loop
      vertex -0.710739 22.1874 0
      vertex -0.979292 22.0811 0.35
      vertex -0.710739 22.1874 0.35
    endloop
  endfacet
  facet normal -0.481753 0.876307 0
    outer loop
      vertex -1.2324 21.942 0
      vertex -1.2324 21.942 0.35
      vertex -0.979292 22.0811 0
    endloop
  endfacet
  facet normal -0.481753 0.876307 0
    outer loop
      vertex -0.979292 22.0811 0
      vertex -1.2324 21.942 0.35
      vertex -0.979292 22.0811 0.35
    endloop
  endfacet
  facet normal -0.587787 0.809016 0
    outer loop
      vertex -1.46608 21.7722 0
      vertex -1.46608 21.7722 0.35
      vertex -1.2324 21.942 0
    endloop
  endfacet
  facet normal -0.587787 0.809016 0
    outer loop
      vertex -1.2324 21.942 0
      vertex -1.46608 21.7722 0.35
      vertex -1.2324 21.942 0.35
    endloop
  endfacet
  facet normal -0.684546 0.728969 0
    outer loop
      vertex -1.67663 21.5745 0
      vertex -1.67663 21.5745 0.35
      vertex -1.46608 21.7722 0
    endloop
  endfacet
  facet normal -0.684546 0.728969 0
    outer loop
      vertex -1.46608 21.7722 0
      vertex -1.67663 21.5745 0.35
      vertex -1.46608 21.7722 0.35
    endloop
  endfacet
  facet normal -0.770513 0.637424 0
    outer loop
      vertex -1.86074 21.3519 0
      vertex -1.86074 21.3519 0.35
      vertex -1.67663 21.5745 0
    endloop
  endfacet
  facet normal -0.770513 0.637424 0
    outer loop
      vertex -1.67663 21.5745 0
      vertex -1.86074 21.3519 0.35
      vertex -1.67663 21.5745 0.35
    endloop
  endfacet
  facet normal -0.844329 0.535826 0
    outer loop
      vertex -2.01551 21.108 0
      vertex -2.01551 21.108 0.35
      vertex -1.86074 21.3519 0
    endloop
  endfacet
  facet normal -0.844329 0.535826 0
    outer loop
      vertex -1.86074 21.3519 0
      vertex -2.01551 21.108 0.35
      vertex -1.86074 21.3519 0.35
    endloop
  endfacet
  facet normal -0.904826 0.425781 0
    outer loop
      vertex -2.13849 20.8467 0
      vertex -2.13849 20.8467 0.35
      vertex -2.01551 21.108 0
    endloop
  endfacet
  facet normal -0.904826 0.425781 0
    outer loop
      vertex -2.01551 21.108 0
      vertex -2.13849 20.8467 0.35
      vertex -2.01551 21.108 0.35
    endloop
  endfacet
  facet normal -0.951057 0.309017 0
    outer loop
      vertex -2.22774 20.572 0
      vertex -2.22774 20.572 0.35
      vertex -2.13849 20.8467 0
    endloop
  endfacet
  facet normal -0.951057 0.309017 0
    outer loop
      vertex -2.13849 20.8467 0
      vertex -2.22774 20.572 0.35
      vertex -2.13849 20.8467 0.35
    endloop
  endfacet
  facet normal -0.982287 0.187382 0
    outer loop
      vertex -2.28186 20.2883 0
      vertex -2.28186 20.2883 0.35
      vertex -2.22774 20.572 0
    endloop
  endfacet
  facet normal -0.982287 0.187382 0
    outer loop
      vertex -2.22774 20.572 0
      vertex -2.28186 20.2883 0.35
      vertex -2.22774 20.572 0.35
    endloop
  endfacet
  facet normal 0 1 0
    outer loop
      vertex 0 20 0.35
      vertex 0 20 1.4
      vertex 14 20 0.35
    endloop
  endfacet
  facet normal 0 1 0
    outer loop
      vertex 14 20 0.35
      vertex 0 20 1.4
      vertex 14 20 1.4
    endloop
  endfacet
  facet normal -1 0 0
    outer loop
      vertex 0 0 0.35
      vertex 0 0 1.4
      vertex 0 20 0.35
    endloop
  endfacet
  facet normal -1 0 0
    outer loop
      vertex 0 20 0.35
      vertex 0 0 1.4
      vertex 0 20 1.4
    endloop
  endfacet
  facet normal 0 -1 0
    outer loop
      vertex 0 0 1.4
      vertex 0 0 0.35
      vertex 44 0 0.35
    endloop
  endfacet
  facet normal 0 -1 0
    outer loop
      vertex 44 0 1.4
      vertex 0 0 1.4
      vertex 44 0 0.35
    endloop
  endfacet
  facet normal 1 0 0
    outer loop
      vertex 44 0 1.4
      vertex 44 0 0.35
      vertex 44 20 0.35
    endloop
  endfacet
  facet normal 1 0 0
    outer loop
      vertex 44 20 1.4
      vertex 44 0 1.4
      vertex 44 20 0.35
    endloop
  endfacet
  facet normal 0 1 0
    outer loop
      vertex 30 20 0.35
      vertex 30 20 1.4
      vertex 44 20 0.35
    endloop
  endfacet
  facet normal 0 1 0
    outer loop
      vertex 44 20 0.35
      vertex 30 20 1.4
      vertex 44 20 1.4
    endloop
  endfacet
  facet normal 0 0 1
    outer loop
      vertex 0 20 1.4
      vertex 0 0 1.4
      vertex 44 0 1.4
    endloop
  endfacet
  facet normal 0 0 1
    outer loop
      vertex 14 16 1.4
      vertex 0 20 1.4
      vertex 44 0 1.4
    endloop
  endfacet
  facet normal 0 0 1
    outer loop
      vertex 44 20 1.4
      vertex 30 20 1.4
      vertex 44 0 1.4
    endloop
  endfacet
  facet normal 0 0 1
    outer loop
      vertex 30 20 1.4
      vertex 30 16 1.4
      vertex 44 0 1.4
    endloop
  endfacet
  facet normal 0 0 1
    outer loop
      vertex 30 16 1.4
      vertex 14 16 1.4
      vertex 44 0 1.4
    endloop
  endfacet
  facet normal 0 0 1
    outer loop
      vertex 14 16 1.4
      vertex 14 20 1.4
      vertex 0 20 1.4
    endloop
  endfacet
endsolid OpenSCAD_Model
